<svg version="1.1" xmlns="http://www.w3.org/2000/svg" viewBox="0 0 726.385732293129 390.5564321279526" width="726.385732293129" height="390.5564321279526">
  <!-- svg-source:excalidraw -->
  
  <defs>
    <style>
      @font-face {
        font-family: "Virgil";
        src: url("https://excalidraw.com/Virgil.woff2");
      }
      @font-face {
        font-family: "Cascadia";
        src: url("https://excalidraw.com/Cascadia.woff2");
      }
    </style>
  </defs>
  <rect x="0" y="0" width="726.385732293129" height="390.5564321279526" fill="#ffffff"></rect><g transform="translate(10 10) rotate(0 59 59)"><path d="M0 0 C0 0, 0 0, 0 0 M0 0 C0 0, 0 0, 0 0 M-0.3755738667817662 6.654014864613407 C1.5406411739071957 5.234023823308997, 2.7370964313904778 3.0084022270629758, 4.582323003890461 -0.14692476430561008 M-0.6044837638409684 6.54437391986429 C1.483719144971194 4.208787758079643, 3.5361400109050556 2.42380110496103, 5.206403757961935 0.05515501981947957 M-0.8171001753677024 11.537613419115125 C1.4992924753163641 9.943954978153876, 3.352611575233138 6.546055161124643, 11.466189293515814 0.9219981993630291 M-0.17883284752260575 11.73979582977253 C4.320305739875719 7.362273864971655, 7.853325052302585 2.9653502813119723, 10.39745116825117 0.6639535497024418 M-0.37135413201062484 18.525010595936948 C4.8467605506684635 13.69652090051294, 7.030855515958353 10.54364631372113, 13.91902461229213 0.27502529015065935 M-0.5346622141590576 17.48057720894056 C2.506041615520771 13.920293315164297, 7.288120766680621 11.907762563379372, 15.212476757823904 0.5035422543925216 M-1.4072432553210046 24.921179586737512 C10.147213273555057 14.786354727537452, 16.15136850284887 4.319913572989716, 21.784580895954633 1.3016504211514714 M0.6769112331978295 23.142494879379033 C5.598702055480541 19.827421182268697, 8.51709395807783 13.112946965455032, 21.009091269502306 -0.35810805911426513 M1.7600500779738084 28.517809347946397 C7.177042094623221 23.602165855508133, 16.939312942917418 11.976719012597531, 27.307543269034834 0.35771581474810255 M0.12333103181322969 30.45273213065063 C6.296671776211928 22.387055507051826, 12.66845330703877 15.346672561423922, 25.636682503532978 0.23770427461832178 M-0.39688678282317724 38.19874010402833 C8.255253090608168 26.595262230876905, 16.00268500654596 16.280403990764423, 31.854839359826244 1.6465708651825075 M0.6959467380214015 36.365624792688834 C10.20297191245084 24.871448622410988, 21.673311274531102 11.989271674382074, 32.74226842024068 0.7347461303009872 M0.3015647615910524 42.95328082944803 C13.160836365967237 29.43718841886842, 24.541458365958846 16.723567143487614, 36.001191930660355 -1.6291279624122659 M0.9013422831566089 42.81402432042711 C12.593675033158382 27.46461453963692, 24.838694193857364 13.924593354640923, 35.90136523898815 -0.36336167146447096 M-1.1011225264520235 49.01533798933856 C15.3620458500192 30.325565327404846, 29.864870730040582 13.34922184915333, 43.90259110983067 1.569906226205731 M0.33065888658158116 48.535926534467265 C15.972168889169371 31.850944539660386, 31.98006233856192 13.606411431673486, 43.30395967010014 -0.9683210059673542 M1.0197914813411089 53.45544847794186 C16.731617488653573 33.03443827757648, 34.93882902513042 14.8438226778634, 49.172822159668684 1.0322673961695479 M-0.3104917413789181 55.35400455951999 C10.744110861612143 43.771753613386984, 20.521299776020953 31.035602240137322, 47.94353668293941 0.19302019739413723 M0.7468420473019393 61.09345626039098 C19.008316199947625 35.26542336964972, 41.76784060068105 13.175578314260335, 51.2569377084679 -1.8668200582788579 M0.987000368637851 61.7757854661871 C17.072012548084807 41.37120461994688, 32.70105603512483 21.934840219597874, 52.3030517378307 -0.8965086866692893 M0.3377727707334728 66.09054531115065 C18.68829057574163 46.09831814505032, 36.80711584939153 26.355588853621967, 57.307785518559825 -1.2528246720064438 M-0.43434335203385643 67.27318320940206 C16.998912698879582 48.91110465806936, 33.38138452917198 30.351588542693314, 58.543958554136765 0.05577566244415877 M-0.6176414990612855 73.08836835468558 C13.286263990988719 56.83960833735951, 26.978736446502904 43.057166904984314, 62.55948071823795 -1.9145845507712593 M-0.4292670970597854 72.10912736909835 C17.615248710520426 52.860754408487175, 35.76155350970737 32.19445170515969, 63.19218134218235 -0.8227661305548182 M-0.04077174975084574 78.34817560612885 C27.064554203277403 49.60763578912911, 51.215651998507894 17.113113250740568, 68.20393356983378 1.6083692705597414 M-0.580457772077196 79.16419189087776 C24.725202614941562 49.17986213084896, 52.21703066672217 19.978912142609396, 69.32714257133021 0.030080504935575902 M-1.6467216030416978 83.34284770972238 C19.682993768513132 59.38072094110794, 44.4283480251196 37.17635666968032, 73.76432170164081 -2.1368638137714697 M-0.16863179176132803 84.216128024451 C20.047297554411074 62.16682067563785, 38.888092576232474 41.38698592875655, 75.2677352019051 -0.8637925563739373 M-1.0677995466023518 91.66957238059923 C23.011939603987276 68.03293470937439, 42.4105759789091 43.206327892545325, 78.97161787599055 -0.6038773386318752 M0.016492688250558274 91.54004096541986 C19.560525394491627 68.18704202484341, 40.858890614949566 44.113056532051424, 78.76135045326976 -0.42263949388159006 M-2.1361057311298026 98.64187734322414 C22.368846854650716 72.63913228540898, 48.36474163573239 45.92232809731342, 84.13806222117648 -0.4096344097794997 M-0.293891025707282 98.18792279371783 C21.586002552339817 72.60845788484664, 44.09698705054373 45.789390785156655, 85.66985003574894 0.5199628171233428 M0.2732909426789547 104.42875907206181 C26.494938211759123 71.98435217333058, 51.34238328168753 41.77200873291945, 88.03368999953011 1.5782089379186885 M0.6216447476994063 103.81528121427837 C25.544994096717883 72.10117199954223, 51.95846915106597 42.862731386716476, 90.15859391870538 0.8152914472426431 M1.39917573715541 111.19381153224529 C38.702637787148085 65.47742028694763, 76.59838837334681 22.351573123869443, 96.25980383934498 -0.9213729012953422 M-0.05591502216663713 110.50776829770328 C21.21877764792165 86.93735589291245, 40.37607618886759 63.683347832708904, 95.38241256246388 0.5243007711870291 M-1.6883987194069263 116.68725911801657 C33.28188297716265 77.92092548476029, 68.35823517457546 35.677496529451815, 99.12550150295252 1.309901537711447 M0.343885125019348 115.06071341870329 C35.68175557160986 72.0524530365684, 72.99718358697491 29.81214200120256, 99.67463468638712 0.5177991095582897 M1.7565924222949576 120.89450455384033 C30.41484442834803 85.26151983823357, 61.712495724850505 51.98318967994243, 108.02114811864627 -2.17305585081899 M2.1381759955916237 120.31517115721184 C30.689936049486203 87.6784882130016, 58.558069612913044 54.41378133775355, 107.2330595007999 0.0012720870671287798 M5.249323319545077 118.6470001537358 C41.28655971714455 78.79999830835906, 76.7722116727655 37.34345000345587, 109.29490394875772 -0.5660261017536143 M6.696440828865455 120.45629255771689 C47.90357367208209 72.70774482147198, 87.30813465993597 28.675488771741882, 110.30898447506495 0.11505927431533536 M14.294586176693912 121.28963404328154 C46.994259783764434 81.81558961993125, 79.30945955984562 40.51750542408733, 115.97013759258988 -0.2234502406276775 M11.973484036222573 119.36821135126577 C40.66463128013685 87.89136654366709, 67.86060417549506 55.43880867077859, 117.23711854051652 0.2138871262364077 M19.416322506072945 120.76334393761059 C50.63201944018571 86.15080196525918, 78.70513267783488 47.57141544740182, 118.93407181247423 2.744828197691838 M17.851462462025708 119.40415773346027 C53.7414805855401 78.10908125436906, 90.8477448952197 34.8066942777333, 119.93672791651736 1.9576264634321134 M24.59474118597568 118.97069798096491 C53.95348759990068 85.08254362492514, 85.786493590891 49.60802873405167, 119.37490159175172 7.839144008560758 M22.889503441599615 119.4395392040111 C51.8474846973544 87.21909172078225, 81.03115357277824 53.02571592160221, 120.66125416843965 7.364373311727029 M29.142846228733617 120.68857138847757 C60.91379210022586 83.63287180868221, 89.8687779823561 47.953999191478374, 121.15526636669694 15.007333675775513 M28.512732569307047 120.47211720852006 C57.97140386665242 85.31090196719134, 86.78981341672537 53.054848774096854, 120.68428643958924 14.335272260386333 M32.079909012640265 118.40546980439048 C54.325054091804645 99.2868193857378, 72.81235348492982 74.46815247925994, 120.03271876560335 18.31212159357802 M33.69824593047276 119.14683049669783 C63.401150290255416 84.01336856928913, 94.0262008305739 51.542019409475515, 119.83253019029085 19.009402684120694 M38.007996050027096 121.23420594383673 C58.08257869399122 96.24288986725469, 76.08165453032441 73.61633483261723, 121.47260655080245 26.31553922710136 M39.16413786945947 119.35597176414625 C57.38825343441924 98.94796188920888, 74.70317965098525 79.26638423436344, 120.61118913990722 26.835697903531944 M45.48544121918765 119.74922295105824 C59.02289608363384 100.71362671158903, 74.34465402350618 85.49743140201116, 120.36548582159728 31.670958050810256 M44.05547322159198 119.76401101057598 C61.43698147231692 100.09410582983493, 78.32884033833702 81.51194339723662, 120.23387846977263 32.85247812355355 M48.9033735324534 118.89927104118807 C68.70377832566787 98.16760445751007, 86.1182066415477 76.46633509320044, 122.1839439272908 40.262218289169404 M50.13331508123301 119.40777218158884 C64.99229587999235 101.50411191577126, 80.99809184308212 85.0518186385919, 120.09194773622131 37.51407917411897 M54.85918936811786 118.84473085846818 C80.33438241323424 88.48651884647035, 107.1785269230608 59.75321071273967, 120.13942238021451 44.342757657311886 M54.46069703370731 119.22125652689553 C71.0721425004879 102.88914031169597, 84.46979513977033 85.45590326079974, 119.223803783616 44.51748125083002 M60.033080238512504 119.8702901180316 C84.22302557931768 93.52103415739236, 105.1694231414285 67.38365062117747, 118.89963005866194 52.127644299479634 M59.59165092337762 119.63581924209784 C71.7549510171944 105.23583589264487, 85.10150605713022 91.74926649322117, 120.34482394728148 51.0818418533974 M67.56150502193087 119.22226696412031 C82.9686881036329 98.80138251524848, 98.79088016735199 83.0808440222828, 120.46507097496456 56.70625343080571 M66.25717908556872 120.10499282690648 C84.7993135243385 99.33290452045236, 102.0077889164748 78.46210126629485, 120.03638382158047 57.54867242742291 M68.91371773070443 120.02128661186734 C80.2953808069602 110.39284719832247, 90.60510452777865 95.36395690740322, 119.8864574784254 61.63430027575484 M71.55428211464334 120.70466372692326 C83.21381914416665 105.42863395719917, 94.135765146928 90.77280285793483, 120.77577046284725 63.661371302840024 M76.2652397431267 120.09960470551462 C87.22253418598847 105.43815179256264, 100.88334970756856 94.05684430568738, 118.42153316834744 70.07296880879173 M75.63193109592623 119.65789569185884 C91.33525209120434 100.61319195046049, 107.65049416778862 83.55999984245611, 120.40550530241605 68.3918524345822 M80.37438757152917 120.91378396019525 C90.24482174925951 106.1906980517999, 101.7080860194031 94.92167045497202, 120.69189580706217 73.92804049504943 M81.88009537378015 118.93510641731507 C95.77041704178252 102.39527020735673, 111.20376727984932 86.0310627557963, 119.6026670596496 75.76717414325125 M86.95574509420534 120.38201752015112 C100.0253106661094 105.11038509286365, 109.65332864847173 91.35621605577441, 122.40041052286313 79.44192722876991 M87.61571478352984 119.7788909030026 C99.29945522873678 103.51946288510977, 113.14327461760101 89.81958946844685, 119.90880494487271 81.14907205355789 M90.55669132348672 117.79680560051534 C98.32671900164627 110.10004939093147, 106.02761860656251 106.33166814336052, 120.20773757808178 88.10634797508622 M92.27172741953805 120.30419809452329 C98.57558209237597 113.22455840269384, 105.04160293544177 105.44747888779702, 119.91896642744808 86.8341357361039 M98.9308726376668 118.66227884552983 C104.2230308475445 111.47869772658974, 109.6300785970856 104.22849339791378, 119.4497455720211 94.2543617084631 M98.08304186712954 119.02315424158779 C106.68291933508408 109.69332458600873, 115.35192824195158 98.5044038324977, 119.31161043870995 94.33334164582278 M102.91473054907708 119.60687497032762 C107.1076970051759 111.22867946436348, 116.19108098299299 106.69863956700166, 119.29433435398417 98.1994961533652 M102.27556497066705 120.44523953979791 C107.78398096399295 112.29763801472623, 114.38541113529664 106.12963306942541, 120.31793028499263 100.19868186264796 M108.1192867744612 121.87978492655164 C111.79591137319932 117.57315557658694, 114.06859885883102 114.47965632250721, 121.80821872981994 107.29234040961457 M107.12292689745226 119.39216182777962 C109.51202631030095 117.83247137237768, 113.21570895525221 113.73149882693974, 119.23649142295851 105.84351090150741 M112.69225075764906 120.38347384602606 C115.41706620016117 117.24633681055374, 118.60931906320603 113.06386098379451, 120.28992993871009 110.57414505206319 M113.27890162196334 120.20734516101733 C114.5423449523379 118.11868447997668, 116.49320753436868 116.22426242496634, 120.35154789828023 111.63467146227407" stroke="#82c91e" stroke-width="0.5" fill="none"></path><path d="M-0.03265820071101189 -0.4440065212547779 C24.05472465567291 -0.011232380755245464, 49.32950451523066 -1.6373857306316493, 117.89412834122777 1.4691594056785107 M0.1300156321376562 -0.015421083196997643 C45.59155489131808 0.8808814532682299, 91.66737294383347 -0.37817112136632214, 117.97521897219121 -0.20499335788190365 M118.24432804062963 1.9588492326438427 C116.81391472797841 45.928706237301235, 115.95532877426595 89.56047043800355, 119.81639732792974 117.31541649624705 M117.49409647844732 -0.4688888695091009 C117.33463997777551 26.525590121746063, 116.93742633994668 52.99725150130689, 118.54201855324209 117.77758354879916 M119.96173252537847 116.79073254391551 C85.17191515304148 118.54654071170836, 52.231848299503326 118.29570016700774, -1.5346605591475964 118.40014938637614 M118.57861151359975 118.1563729736954 C85.17473765015602 119.6784816372767, 52.294200197234744 118.35939717177301, 0.9781170692294836 118.68904877640307 M-1.513135176151991 117.45191196724772 C-1.0297283728048205 91.67832888551057, -0.7356730301305652 69.55664323419333, 0.5715455003082752 1.0728453807532787 M0.5622106399387121 118.46980048157275 C-1.1570692480728029 86.10506478026508, -1.3529546083137391 55.138531975075594, -0.0007262025028467178 0.9454789850860834" stroke="#000000" stroke-width="1" fill="none"></path></g><g transform="translate(49.5 59.5) rotate(0 21.5 12.5)"><text x="21.5" y="18" font-family="Virgil, Segoe UI Emoji" font-size="20px" fill="#000000" text-anchor="middle" style="white-space: pre;" direction="ltr">User</text></g><g transform="translate(150 239) rotate(0 59 59)"><path d="M0 0 C0 0, 0 0, 0 0 M0 0 C0 0, 0 0, 0 0 M-0.263667615470464 6.880671912481182 C1.747095381643887 5.529945611854198, 2.5556703275835693 4.106725780007998, 5.470122561933941 0.42554155251358083 M-0.048584791985328 6.743644363482587 C1.2046425713737476 4.057886214693669, 3.2521671694022385 2.2639340337050995, 4.945075223180003 0.6654525611398034 M-1.4153581759799614 13.025665864765227 C2.0893448133129295 7.120935911468958, 8.268810805824106 4.400740752650555, 11.081259654414785 -0.8166108463809132 M-0.5482649720181121 12.48171430718857 C3.905441127985071 9.053059219411939, 7.089896282387046 3.9893295716471573, 10.57182635958208 0.3288142840459707 M0.5933093958953162 19.79816614361542 C5.558908222191391 11.892601950072963, 9.266328795151328 8.22493175441096, 16.359844136520703 1.0742793275904825 M0.2322293137619038 18.101521481667334 C4.611159672917453 14.562203423447297, 6.749547536394145 9.982055178345979, 16.02856178721734 -0.25600389512954447 M1.0273144433460448 23.455851943879484 C8.954291841632466 14.671757429348936, 17.913544217418835 6.0888551609563635, 20.873295994752908 0.6681845126837018 M0.3163023462704633 24.190914008482455 C5.970295235548957 16.010047367251385, 13.470640449497257 10.184396914480903, 22.233247936049366 0.9083428340196136 M0.08768157386680997 29.617747599024526 C8.035785234525763 17.51773597547809, 20.004306470014047 9.321906380957206, 24.271776928242655 0.8806794354703964 M0.5809195144613639 30.706378038738123 C5.60469943466397 22.72155317324227, 12.059165946435947 15.82028092374777, 26.02527753696999 0.10856331270306718 M0.3112071211356202 38.599578099140274 C9.777792554275567 25.692622248855407, 16.547107227105016 16.851014626201742, 30.572361049658454 -0.8639392441824789 M0.08259150748136435 37.09529139455532 C8.850371361436512 24.95534990928769, 19.09157004573777 14.631591440844158, 30.986360933116472 -0.6755648421809788 M-0.9098438311695105 43.049099684316445 C6.951252705201686 32.3344734071061, 17.588548802846436 25.844055367824833, 37.8983551057068 0.3344947044831237 M-0.5186553605227715 42.107766273055006 C8.718587292261088 32.581662381585424, 18.819089016472685 21.180904574126313, 37.739987976664054 -0.20519131784322653 M1.579085463657897 49.3352285853111 C13.275171940080321 35.14604814767165, 23.698553899049447 21.713990912732047, 42.60277070905619 -2.060659558665847 M0.6350437626241856 49.4982779870265 C9.200548432150594 37.65960628523091, 18.26981366788477 27.45151365902682, 42.762400260749985 -0.5825697473854774 M0.1622566182863565 55.39007396199118 C12.162956501426786 41.84990328062216, 19.862482676039026 29.864734540447866, 48.894852106413126 -0.8601733028713419 M0.7543054700594993 54.18019790336798 C14.24195071934062 37.12756938167031, 28.768243748538648 21.016035076618437, 46.69661888754952 0.22411893198156818 M0.08016387942235781 59.87161454511474 C15.616251427357948 41.01319643789827, 32.821310112517445 21.687026337627664, 52.96354841044611 -2.061624868266403 M0.7165258639584096 61.70097008486877 C18.050180744362354 39.701930427645046, 36.25261706236094 19.727891159553934, 53.1634167001999 -0.21941016284388226 M-1.103052669256094 68.0057315747715 C20.696360044048397 45.87346023864306, 38.85708189616444 22.39100176607679, 56.60404136786164 0.3132769759070122 M-0.7792062415323286 66.39664422864983 C18.91096846538681 45.332695393638645, 40.08644823991389 21.025092778566886, 59.07534605087639 0.6616307809274637 M-0.5927841940709939 72.97533754105119 C22.22389239367481 50.45745531039026, 45.17062436305905 24.931761483026122, 63.34121759132822 1.3060163895158539 M0.38221359273403976 73.09350440683214 C23.425901323046777 46.11924746002032, 45.566190615685024 19.738167145159004, 63.44771103271623 -0.14907436980619337 M-1.457130198315852 81.30950492471186 C23.67636000733818 51.96878505414982, 50.10676978338022 20.674142794507027, 68.05619632755234 -1.816052896681832 M-0.6737716560672453 78.809697807205 C24.529518091786233 51.09454261195423, 50.68783725035822 22.914354479421633, 69.71259524789467 0.2162309477444424 M-1.1594853193221581 86.72549913562045 C17.84861713557651 64.10223541322655, 38.3228556002197 40.82923687236393, 73.10980168920251 -0.47238422281907333 M0.3435327302010762 84.9097676716666 C28.64413438783795 53.63258508097014, 54.333213129169636 22.835569500126198, 74.52983403954896 -0.09080064952240718 M-1.9320115603834225 91.29145515453503 C31.46498042551605 58.1641143066823, 59.47343429457734 23.371328739011787, 77.96909042298523 -1.6065613581378528 M-0.7958990212857557 90.57982993800626 C18.136289007510687 70.43413365326904, 38.327041013709575 49.170173757121404, 80.10104225985435 -0.15944384881747453 M0.6917749121783601 99.26841047154531 C26.4113441192144 65.04070958371292, 58.29252791461496 31.86227525813048, 83.330824141569 1.4010248572288049 M-0.6878999713809861 96.98210617834494 C31.904019915024364 59.717799808228456, 64.43853259320603 21.96609107635625, 84.9805865019481 -0.9200772832425343 M-1.2161733179588055 102.49943382674101 C26.952342579334466 74.657594925262, 49.851399412014885 46.23314973684706, 88.7479970916603 1.8958531540389316 M-0.6997875559378599 102.95655233980361 C29.333475105762865 67.97308247001834, 60.92778870799892 33.46883931666136, 90.38961286800543 0.3309931099916952 M0.9283879959115708 109.79875395088018 C22.801850424542522 81.74153964390203, 46.42185370475536 56.99482239495603, 96.75330838592768 1.0365951921594956 M0.6239593272188628 110.72248748517157 C24.88463539681345 79.4167975367159, 51.199238037754725 50.55364235966428, 95.02701920116365 -0.6686425522165678 M-0.31059203354200093 116.7937925038298 C29.57021639469158 80.58727893151985, 58.42187424362284 48.63433114869031, 102.48568977107757 0.9577922023485357 M-0.2833864787735578 116.03312673134705 C33.91828726718725 76.63765774207673, 67.38866808314373 37.465188680691185, 101.38348285359794 0.32767854292196574 M3.2052454273584914 120.82371197567957 C38.98875780753491 78.01564182344359, 73.07162407782569 36.67809163334641, 105.81377785977853 -2.142821655526994 M2.2714044652316403 119.386629150451 C26.166856740295056 88.72188053176879, 52.15899942626939 60.48638481213916, 106.55243291844559 -0.5244847376945003 M8.031846020272063 121.8002869460737 C33.06095719693579 88.03786391469234, 60.135340681075746 60.03000505099282, 112.96244189873703 -0.8416426507090549 M6.772195281362222 119.19946902915888 C45.372646188801085 76.58536568763489, 82.15981754763011 32.634847931269235, 110.54407799788184 0.31449916872332295 M12.113210933924194 120.12529030621575 C38.19460432493526 92.32334522492276, 60.7820360152044 61.278264622386246, 115.98019697163107 1.3528354568921017 M12.151451513812418 120.0363220907055 C45.75995718415503 82.67035658089029, 77.0732988738791 46.65326949646783, 116.44031940605345 -0.07713254070356612 M19.560928165021366 121.02310703686376 C50.4911272405593 82.09305041733137, 82.33546702954476 41.735007659008176, 119.67784982516716 1.6532788980344932 M17.25727238975746 119.25517927288016 C44.126752982131684 91.75339098965821, 68.06544741105364 60.95361994316934, 120.02089699513564 2.8832204468141 M24.841290576232083 120.15631504788472 C47.282874924342444 90.36797663062742, 74.13636942263501 61.91244352482713, 121.81561692706123 7.609094733698946 M23.728008877334602 118.93542756758107 C49.69989273117412 90.16859497312545, 75.00461667668246 59.79794793611177, 120.63800721331313 7.210602399288398 M26.40182366426285 120.78836182003666 C51.063979154286145 89.83308173282536, 79.29200803240332 59.56588430600663, 121.22659669796286 14.193754213306889 M28.306291453719098 119.35302666259754 C54.425951434417314 89.18949240354412, 81.9049195925387 55.95576048743062, 120.02727533670424 13.752324898172006 M34.79475779178217 118.8708877631865 C58.60924118838553 93.70646721603912, 83.22702098099774 64.44880573047249, 118.78723825054054 21.72217899672524 M33.6500023370482 120.38033229982774 C58.782944466742975 91.5394878319739, 83.97360394057543 61.9886311333075, 119.96572420844619 20.417853060363093 M38.30355595549651 120.20640285809235 C67.77728534809208 86.90734079024526, 95.9420764082511 49.686550931368316, 118.98022333150075 24.485160314712083 M38.646303254497134 118.96127291706101 C64.48692455429158 89.35395600603708, 89.26435803883179 61.31880478990001, 120.52215618071423 27.12572469865099 M43.066386018074425 117.53561001462111 C75.1294522152414 86.81476234528523, 102.25031136322124 53.83940764080046, 121.36187952452153 32.591391907357135 M45.22260767420319 120.51117300619552 C68.97623674705358 91.16462062067043, 95.6941392809239 62.209762471515376, 120.21206631765514 31.95808326015667 M50.70264847622238 119.70008171353085 C72.76924425407786 93.12211409074007, 95.42613377350543 69.01423132653464, 121.46900316328085 37.356598764750096 M48.66060857334159 120.39192975502057 C75.89942596140594 90.30246983277942, 101.79108946734621 61.7648743583441, 119.59196530841565 38.86230656700108 M54.436448692608884 120.72958336468852 C68.7419050009361 104.58990216766213, 84.97567581970655 87.5439205234864, 119.7256822444852 44.69266586764905 M54.4072506700496 119.31183640543438 C78.47833367312501 92.74075208964744, 101.14950093362364 67.71729077964287, 120.853702380171 45.352635556973546 M60.72312466394042 121.00474994885217 C79.88156077783162 97.14868394603646, 100.26946854966874 71.68300782723786, 120.91070963080311 48.94967112592092 M60.38875819150244 120.80075889522622 C72.55187149871364 106.74827740632048, 84.10254380399827 91.35971505683094, 119.97937850105846 50.66470722197226 M65.37271925288552 120.34440937588874 C84.69583763849798 95.77773819736753, 103.98541743807768 73.2646427620582, 119.78411081894106 58.07856202032378 M65.8216071058374 118.60995921629433 C79.81569406436489 103.39169894153402, 95.5164295971301 87.19850105159004, 121.05537414825326 57.23073124978652 M71.17650795615066 119.16825912655631 C82.42027182553213 105.593153173428, 97.64062741137067 88.315162347162, 120.55455714257707 63.47318854094735 M71.52655289022971 120.18727205642799 C85.19355125325367 102.92137692084168, 100.58079571368398 86.18031688585268, 120.42726251090218 62.83402296253732 M76.03047113640434 119.58418961072178 C93.21026003978996 102.47184664787693, 108.45168548773691 83.01444039475507, 121.78618868538912 69.35943192788133 M76.73960276281662 120.07692815752537 C94.3374652515386 100.00858751019022, 109.83368936307494 79.05537016272214, 120.29413240315195 68.3106320573456 M82.56182179035308 118.55096080914325 C88.74958134437902 109.55154064374857, 100.84153936762826 100.38010463354536, 121.30543719408371 74.18433341188378 M81.42604345077338 119.39473095737583 C95.52034315492762 102.55692583119705, 109.15889566984087 86.1808754245399, 120.3029111771778 75.25097134700067 M86.25247778066536 120.96552563168763 C100.16827622694778 104.7940886923859, 114.47077582608907 89.97167719775916, 119.66843928132937 80.45812715282167 M87.09141342223724 119.22787994787751 C94.22004142400172 111.30760607442659, 102.49254946189691 101.07580109822337, 119.70327792611704 80.15434969840075 M93.06558960404769 120.825706559113 C97.226092297158 112.31070510617279, 105.60966061812651 106.53200773121343, 121.78756419383257 87.91691688145305 M91.09553065438345 120.11014731681976 C99.35992302948385 113.14173711069512, 104.26991616984354 104.68885907287316, 119.66169125214486 87.90414867433513 M99.56901262316856 118.3175190012863 C103.36297949046208 109.09828904734103, 113.0412487388025 104.2096193819267, 120.39882701527128 95.36470883786764 M97.46346486534927 119.42170130610076 C104.4815413319128 111.78345580609896, 109.21072942704565 105.80275504581724, 119.41630246940801 93.9223554719248 M102.56183483473448 120.97784793896557 C108.11990082009302 114.76488417781007, 113.53711912628195 110.79935302987931, 120.96871157932358 98.06254051215512 M103.19956528230993 118.86428285350979 C110.06419774376954 112.00908581239511, 116.87058824950019 104.87148875514237, 119.8712785170533 99.87119166329069 M106.59631818159394 121.46283863127536 C110.05574432329487 116.73209258553888, 113.90053487110862 112.42538073429641, 118.67581740389376 105.14793662675513 M108.40187276498327 120.5881334167563 C112.81788205058673 114.88713952964238, 116.22595299559875 109.07644517162043, 119.23644231897576 105.37321255034622 M112.91058651766133 119.46894539826393 C115.09894726659519 117.1978204988919, 117.94552146548509 114.41649952593409, 121.04871823864316 112.4441711215702 M113.70636347540048 119.31847242451116 C115.20650736962833 117.89898974774587, 116.40134359835666 115.88495883117538, 120.74701351944616 111.75567076294021" stroke="#82c91e" stroke-width="0.5" fill="none"></path><path d="M1.7700959853827953 0.30331041291356087 C40.82134388275445 -1.0659447724744677, 77.67304878085852 -1.0341346080228686, 119.73269275948405 -1.1878069452941418 M-0.8155246283859015 -0.18933681584894657 C32.211130023747685 0.19624037612229595, 64.17401247434319 -0.3645551098510622, 118.63797331787646 -0.38997278548777103 M117.38382057473063 0.4029628224670887 C117.72235558945685 32.70544724203646, 117.30824981648475 62.365006399154666, 119.94484798237681 117.75695731118321 M117.66005803085864 0.661207577213645 C117.78565725091845 35.88427830934525, 117.68599226478487 70.86530459262431, 117.22403914667666 117.59364922903478 M119.56793014332652 119.55594851449132 C93.09591310285032 117.26434619169682, 71.50028079748154 116.03180546503513, 1.716523926705122 116.32646598294377 M117.81751973368227 117.49506457708776 C77.90937079787254 118.78603029426188, 36.37800141833722 117.50224667962641, -0.43520103953778744 118.41062047146261 M-1.285119254142046 116.00848330929875 C-1.4620635234192012 93.10458313636482, -1.0284443818405269 68.0169862166047, -0.860604602843523 1.7552161403000355 M0.5827027652412653 117.64518096111715 C1.0105006165429948 94.20727935358882, -0.14126169014722112 69.66295341439545, 0.017735669389367104 0.11849709413945675" stroke="#000000" stroke-width="1" fill="none"></path></g><g transform="translate(182 288.5) rotate(0 29 12.5)"><text x="29" y="18" font-family="Virgil, Segoe UI Emoji" font-size="20px" fill="#000000" text-anchor="middle" style="white-space: pre;" direction="ltr">Group</text></g><g><g transform="translate(134 24.724656054431904) rotate(0 100.31040925141895 31.337382922505853)"><path d="M0.4456433303654195 0.44920006915926924 C33.503147738804124 10.788635706823287, 166.01937450284612 51.347306349482224, 199.03671396377504 61.68456074324976 M-0.7795326505322009 -0.36057383987121283 C32.61137492056471 10.182926472468269, 167.79710043308796 52.91568505468762, 201.40035115337005 63.03533968488294" stroke="#000000" stroke-width="1" fill="none"></path></g><g transform="translate(134 24.724656054431904) rotate(0 100.31040925141895 31.337382922505853)"><path d="M172.1845406479528 63.38905684793029 C181.56414212280367 61.944083150740305, 193.5942660213256 62.665361967936846, 203.06579852631322 63.84547902430016 M170.85425742523276 65.28761292950843 C178.38675891160767 64.97646794493369, 184.5057405693706 63.44035669540883, 201.83651304958394 63.00623182552475" stroke="#000000" stroke-width="1" fill="none"></path></g><g transform="translate(134 24.724656054431904) rotate(0 100.31040925141895 31.337382922505853)"><path d="M178.25675676815436 43.786807135833364 C185.40717846432685 49.374944653673744, 195.26563118783432 57.106784330779774, 203.06579852631322 63.84547902430016 M176.92647354543433 45.6853632174115 C183.2233175454435 49.551011206260014, 188.05618773496818 52.16670840013444, 201.83651304958394 63.00623182552475" stroke="#000000" stroke-width="1" fill="none"></path></g></g><g><g transform="translate(206 237) rotate(0 63.62389107087165 -39.15215612165633)"><path d="M-0.4916100494563579 0.6913026921451091 C20.924912704656222 -12.604846261814238, 106.55697969709684 -65.76310505010188, 127.73939219119966 -78.99561493545772 M1.4511559452395888 0.008632660182192886 C22.79995713666859 -13.195068592978647, 105.66890157021743 -64.8023676460516, 126.93427930926912 -77.7195386047941" stroke="#000000" stroke-width="1" fill="none"></path></g><g transform="translate(206 237) rotate(0 63.62389107087165 -39.15215612165633)"><path d="M109.46696705396803 -53.743139169076485 C111.73897669461454 -61.12859911481009, 116.6324149920454 -66.20821639707785, 126.49044418862097 -78.084647411434 M108.5987109041545 -53.33574681811969 C114.05358910065944 -61.267594024969625, 118.18077204905646 -67.1560049490291, 126.27532506702475 -78.09976598243232" stroke="#000000" stroke-width="1" fill="none"></path></g><g transform="translate(206 237) rotate(0 63.62389107087165 -39.15215612165633)"><path d="M98.7030337769036 -71.21476596204413 C103.63648871965938 -74.42080484284521, 111.0776205574461 -75.36509820826949, 126.49044418862097 -78.084647411434 M97.83477762709006 -70.80737361108733 C106.50154901436466 -73.68929966398166, 113.76792260312467 -74.4822899932976, 126.27532506702475 -78.09976598243232" stroke="#000000" stroke-width="1" fill="none"></path></g></g><g transform="translate(587.385732293129 58.556432127952576) rotate(0 59 59)"><path d="M0 0 C0 0, 0 0, 0 0 M0 0 C0 0, 0 0, 0 0 M-0.48319495540576674 6.87644589548289 C1.4707711235543224 4.168781313243492, 3.4456291632315734 2.4139639706906166, 5.498364387037701 0.4866811361012273 M-0.11222581562119222 6.727792436678998 C1.2162428938676764 5.385069729650008, 1.809707036384245 3.643113068481885, 4.847368952962107 0.28608287310574587 M-1.2600952288974419 13.32338448506552 C2.5660625519780877 8.714830659644397, 9.7250520546376 2.2445879893818717, 9.783818744075429 0.8132061625912548 M-0.4911140358914031 12.814552079557954 C3.5724796273472723 8.032697883838397, 8.060332524171177 3.311520551986438, 10.252155396294725 -0.10825455979558218 M1.5695917540648718 17.92387734623688 C3.565115219564256 12.211321106582943, 6.825556352138158 10.92362057463683, 14.561506438537915 1.5152600004267862 M0.5516652678558369 17.594461549912268 C6.218513311384678 11.183423915046104, 11.176421716809124 5.062608269816064, 15.190324859231193 1.2092452856642177 M-0.7608303835429933 23.916913183122038 C7.170449661183444 18.538780681639604, 12.642191111427472 11.739450280917863, 21.078353377336526 -1.0069007934839007 M-0.36833961101255674 23.838993999823092 C3.893767445616132 19.95068286529243, 9.12719683498215 13.276948838303918, 21.27850633887377 0.5767055707215789 M-1.3474587974558219 29.956883484263173 C9.689424250565764 20.258409434276643, 19.630631418339995 11.246820277388498, 27.57422353201768 1.2806902596738876 M-0.7544067995111092 31.169876273486963 C6.676179955444656 21.756888059063265, 15.122414348822637 13.785415282598162, 26.75664357529244 -0.12140082437426436 M-0.7394346539956054 35.070450739750015 C5.202600095612556 27.916399682317646, 14.639712118302306 19.52643273878588, 31.230253515249885 0.26326731976710604 M-1.069556858493062 37.74151744302486 C7.754695008509254 25.689907397612266, 17.138958878457483 15.578080964695904, 31.561915661624468 -0.0732650327251072 M1.6195696305156702 44.36630868967228 C15.73801685591573 28.36574588476324, 25.797531355379487 9.121834621893434, 37.583812573739635 1.0519341175538024 M0.7017052761883491 42.13606095555775 C8.289461029815705 33.05727868559091, 16.042802548143648 23.009953098036554, 37.548281200045096 -0.08300549154165182 M0.29817330278448395 50.42431106478803 C11.675605278986774 36.90504503678816, 22.86901504524763 21.848320510172154, 40.65197482015543 -0.9290126870990747 M0.6477132067083531 49.06501337387495 C12.181482851188996 35.01430423668818, 25.572779032127716 20.032379880999446, 43.297450533691574 0.8291554160743004 M-0.6552995245206503 55.1375045249642 C19.48641660068656 35.313418468269475, 34.49691044798633 16.679641548929794, 48.558047001203775 1.2205931365665244 M1.0845522762042137 55.523777314874636 C16.381295870652686 35.49047876664467, 33.56718965141897 17.37162344802327, 48.432913514739155 0.9020680029120491 M1.9137078953067572 62.874805300958855 C14.985727383399052 47.138551392304265, 25.005293113730357 30.575352638609715, 51.655040729553164 -1.035889251582443 M0.8700873368511708 60.26682809134613 C10.847915250654747 48.30195868674711, 22.25580088942252 35.45378001402506, 52.430911736325086 -0.9665213641301982 M1.7333981459447116 66.32303213286171 C19.828255243669577 42.98016786227346, 42.13942466185593 18.408175620868413, 56.1522002519101 1.490768879212066 M-0.44112404720402054 67.96224665041039 C16.762652367247476 48.50392326239198, 33.52634515300681 28.33585085560275, 58.93446630062462 0.25520637773685095 M0.012442561071217995 71.8760350107625 C17.388237957379346 51.50303515976697, 35.695167534196486 33.445201002712324, 64.23847468094309 0.8029891888170013 M0.9964913131853947 72.8933483141884 C18.84103208863662 52.19373353749412, 36.275793588205715 31.936837523777555, 64.564350050775 -0.867033654588603 M-1.6531958626072338 81.02382391541926 C21.775594438831227 53.305728072726225, 42.20886544732068 32.96104883800676, 67.70904576335862 0.8790629079904093 M-1.0861548548053435 78.66031152046946 C24.194959632820506 50.46739042315884, 48.532839587407786 23.823003857110336, 69.23311533895149 -0.7584536483172641 M2.1871507375778663 84.19460175669894 C27.962956529812928 52.48160406309963, 52.417208412135665 25.287699087884178, 76.0888001118252 -1.2395258034007384 M1.082100916961025 84.33471076115177 C16.67439649756656 65.55842898221903, 34.1677822034764 46.74235318467006, 74.95606625829133 0.5646302634490894 M-1.5346171416669918 89.91744101535961 C33.20154791672826 54.73461578818619, 64.04017920526468 17.651041487167745, 78.25885697304932 1.7145767854015759 M-0.37329839434026013 91.93469322402463 C29.131250667236717 58.384310918521656, 59.10028431576693 24.206120764018152, 80.16528641096977 0.9699746434997252 M-0.937953166663803 98.66431668149099 C32.13554592446479 60.32304303801904, 61.86478182938281 24.60095232252101, 86.58004045969949 0.32191733426432734 M-0.8177170995624437 98.57951173120901 C25.920190599774255 68.28594930427377, 50.99232113777519 39.201850299791076, 84.52061114012406 -0.3907678912671315 M1.7131577462654377 104.23923499518278 C28.294935408509147 72.24966300210068, 57.38754183089501 42.224895292309895, 90.5194073184822 1.6389120739455478 M0.48699611544122945 104.19115347982589 C37.0159447380579 61.793066922634836, 72.79833430061227 19.76254871565142, 89.22365529792944 0.39312797193780114 M-1.0829776561727797 111.16736218719305 C35.744225435838565 68.88084559479466, 72.29777691036445 26.65660395011234, 96.77371916206599 -1.7148298356877945 M-0.023168897154000945 109.19596878266455 C36.299698634574696 68.54232015917106, 70.21348765740008 28.99097976457105, 95.82878547752321 -0.6087163999872587 M1.4016522386900547 116.53705741738877 C35.055769045548004 74.61422114021907, 72.55936718154996 33.5359380946594, 98.89597023715729 1.6061703361223394 M-0.05947054421087472 114.67920400662324 C22.39334916068439 88.5076816410937, 45.28691238334693 62.26665802341228, 100.55714778108054 0.30739305574697795 M1.7194687645319533 120.89842067585963 C26.49333821873108 93.80794779015086, 50.271150179273675 63.34040162317311, 105.41885965642464 -1.2394157507570966 M2.8017893634173703 119.59604947382289 C28.9086834420753 88.39760416505908, 55.80811454882573 57.733307295336445, 107.10764005173874 -0.12095354396128499 M7.090480063011931 121.12416404224984 C45.28499297363443 77.74406758263274, 78.03056078844212 38.387078953196934, 109.48131916657455 1.8829531344319363 M6.649942697858499 119.94501072093897 C41.23766588762607 81.26948775982589, 72.89242807197584 43.524382420762336, 110.97093964167304 -0.6470933863227586 M12.372749822855468 120.32699790776299 C50.093720589652335 79.8823260480944, 82.73428924284207 36.79623102904364, 116.295926351285 1.9257207317791867 M12.897923753306742 118.99779472120629 C52.905929649904294 71.68689897884705, 94.94723539437966 24.945161841480527, 115.5844166150302 0.6392419757835555 M16.841928540769047 120.1922447531571 C50.675568243221235 77.59860627497206, 86.50590141376054 39.32661566072545, 118.0875504572625 0.31249077204267195 M17.74930050693733 119.94442366241415 C56.46123276606998 72.13323085724109, 96.96959328502348 26.62602710623861, 119.95827957398544 2.2776841051469248 M24.37837157942117 118.59341998829915 C50.12702464201897 88.85414809011087, 74.32065441461333 58.685201872770044, 122.28047045222297 6.553607816203218 M23.07289267688752 119.82131578646077 C61.632138472446115 75.6231028945163, 99.83898710005036 30.71673416996066, 119.55019371672347 7.3653085197794255 M29.093666935518343 118.75490859394718 C52.77845166615644 92.77189422116268, 73.18657318210707 66.90825053356016, 119.62184725681601 15.333480613682255 M28.716799490332562 118.98646203113545 C55.211229105097516 89.51724558892589, 80.26962712531895 58.937300772637606, 121.07625306936262 14.956458051133737 M35.45410747172907 118.33928847996812 C62.671834081445496 84.80225542942168, 93.04252590722479 48.55460227839448, 121.1521924837101 20.4279683243467 M33.31937191540971 120.51924938833635 C55.86328363139679 94.60291862357171, 77.63090850137762 70.42661180148036, 120.16894922504012 20.292629066108027 M39.90721868475982 118.61000712712006 C63.290589950050816 93.90350246821905, 85.69796647774527 65.20083321351544, 119.76825037961171 27.338799678954636 M38.62324042929419 119.69563754585282 C65.5542189061533 91.3941439235549, 89.65499894208938 62.338316178555885, 119.62755328593121 25.74939062749163 M43.00523093727914 117.51870494526992 C67.82590465932364 95.65659827793087, 88.55648701397905 69.25617091621456, 121.6904110281989 31.135605917595782 M44.286287250123294 119.38798224558303 C68.11773450285622 90.50839051859597, 92.30935894942493 63.01601075284561, 119.57302906618267 32.99091743240551 M51.0316072259935 118.86789191517575 C72.83371412172937 94.55045913271961, 93.85092957524358 67.15369402392494, 119.36953326314962 37.84504953035984 M50.19567410507224 119.54021192531629 C66.18323610910879 97.95373366666814, 85.41148707192478 77.97924903463269, 121.04235600494123 38.67161855297062 M56.12451541357141 121.39827094670451 C79.40951759126563 92.32525441451406, 99.09623657851711 68.41899704069685, 120.39376758117038 45.83995299800488 M55.2788144622783 118.5676510769508 C80.0834109943125 90.17056069618732, 104.85494892977432 63.14780290443925, 119.58285207938212 44.13776617697629 M61.90335599671935 119.95141452061425 C75.51017175916766 104.46533886458317, 90.83316771574965 84.52738749728974, 118.9559693449297 51.68133173039785 M59.817401298916685 120.83219688827585 C72.44842235447159 106.38165083573823, 85.30815126515581 91.29648894448285, 121.40708700764263 49.58202854632071 M67.59223433810585 118.55708804677192 C85.08645481311375 95.90124177148925, 103.15443542454679 74.79243921196614, 121.48022655113405 55.2810707082968 M66.2583793331247 120.04214260118965 C86.8190853805699 94.74746588276908, 106.31243771879873 72.15730870686542, 119.70691001689798 57.518646598793175 M69.6464884344374 119.59592650593558 C82.94430074113441 102.88819276824529, 97.60510327331795 89.8756218785854, 118.08927303346147 61.743957421791464 M71.52797279207755 120.72735415348151 C86.13837774565302 101.61281542851643, 101.27825885318975 85.64083063488519, 120.80836304629494 62.937966906514674 M77.8761611483825 120.88675780797215 C91.02517284360833 103.87373486664555, 106.28920545845983 86.77174380197451, 119.51131137558993 70.75681061097154 M75.8426576439125 119.6390935370496 C87.10286924298669 108.41906326362005, 98.21915286874227 95.36190248451213, 119.76600365998026 69.00807041660616 M81.07252797664763 120.84927943363971 C90.77547958420364 108.29031690215946, 100.5465187371237 96.6759705653188, 121.98683582422592 73.97760900659509 M81.02318936580481 119.22519543968326 C90.01024225082536 109.24518688845605, 98.76998057588764 100.45753591376629, 119.95722796012916 74.77640119185693 M87.13156928190132 119.59138179280518 C94.07266387990914 110.93379135617916, 101.68340944975128 103.16629258431402, 118.73604549203799 80.87752426852907 M87.30557517589172 119.02989060328065 C96.49038601020614 108.56554171481174, 105.70505674673657 98.08597243431487, 121.23718378987894 81.32429934916522 M92.68049806085006 120.07182486622665 C100.48902544379051 109.94458279875646, 107.01132135958098 100.10533186734982, 121.58537212573259 87.90359762753154 M91.65510180134848 119.1689824656311 C100.04544024587962 111.24776035024564, 107.22909632344015 101.71113648957284, 120.25279850140481 87.2421777013203 M99.20123217616234 121.18756156377104 C103.30633672062746 111.27871390349202, 110.47412224929553 101.1057652213951, 120.43489330898771 92.32077282369222 M98.57730771031234 119.7296705186328 C106.58380611294983 109.26552938452204, 113.96720350205192 99.78718532548388, 120.5976921588535 92.78405469544317 M102.65692212454466 118.9364143661964 C107.9909240173472 112.3179700349938, 117.4674678285268 104.94001592291113, 120.16515537548142 97.6010248471008 M102.43201087995855 120.24572695007504 C108.34156984937239 114.40771151221129, 112.31036716725859 107.53605525520335, 120.40650045137184 99.56918315365476 M108.89301364048296 120.24933466255969 C112.09683537174905 114.057349160115, 119.09988912229909 110.57872884238354, 121.4716701961568 106.75807195552481 M107.59042851225385 119.86260991512171 C110.22456367966618 116.49535295985727, 113.04055927248139 113.80272442215046, 119.9566114161609 106.2557027739924 M114.15564499458623 120.08668503993034 C115.58985412046206 116.31479391733272, 119.46073385884172 114.09260431488985, 120.60311166124677 111.96907362029226 M113.6840990722957 119.29347015357419 C116.15456067121022 117.0035971931398, 118.13061233692656 113.61644242806368, 120.10373948041608 111.07453274218636" stroke="#12b886" stroke-width="0.5" fill="none"></path><path d="M1.1042045764625072 1.0591104216873646 C33.7419674474746 -2.5290398676320907, 66.21363458484412 -2.7685233433172103, 117.26117543503642 0.1994246430695057 M-0.18189876340329647 -0.43520824052393436 C26.182000757008794 0.5103662358596921, 52.1118888180703 0.8974123941734433, 118.97903860546649 -0.8274755273014307 M116.72523049637675 1.6012906022369862 C116.89451491553336 46.60502769686282, 116.12926625926048 93.64723601341248, 119.41251675412059 117.59623815491796 M118.76897610165179 -0.7545971665531397 C118.89660686973482 23.67666951417923, 118.20621693853289 47.53495912887156, 117.28343863226473 118.86621805094182 M118.63563553616405 116.76296617463231 C91.04407892487943 120.50346528511494, 67.56547931432723 119.63879107456654, -0.9310645647346973 118.58239569142461 M118.89184231497347 118.12038608454168 C76.90440444350243 117.58420073922724, 38.1969443704933 117.70602244075388, -0.8431363012641668 118.96760167740285 M-1.6080617494881153 119.25129045918584 C1.501626931540668 91.7862392347306, 0.01525553356856102 70.36576274782419, -0.2638312168419361 0.6033318229019642 M-0.5319890882819891 118.35471954010427 C-0.49133737850934245 86.8738380484283, -1.5392445521429179 53.307162107899785, -0.8127345349639654 0.49126275442540646" stroke="#000000" stroke-width="1" fill="none"></path></g><g transform="translate(600.385732293129 108.05643212795258) rotate(0 48 12.5)"><text x="48" y="18" font-family="Virgil, Segoe UI Emoji" font-size="20px" fill="#000000" text-anchor="middle" style="white-space: pre;" direction="ltr">Permission</text></g><g transform="translate(598.385732293129 262.5564321279526) rotate(0 59 59)"><path d="M0 0 C0 0, 0 0, 0 0 M0 0 C0 0, 0 0, 0 0 M-0.551151078161771 6.566444340397708 C1.7494606560292079 4.841413081256075, 3.1677522499424215 2.938861875342514, 5.080273319365925 -0.387246448189277 M-0.34907240119295807 6.706260301967256 C1.1633936877640765 4.637883727811343, 2.787170703261228 3.2805312523381094, 5.224282314213461 0.6709438372251801 M1.2114420571457254 11.299719074785292 C4.69073851545264 8.887315636042525, 8.729562625687786 2.649444081469595, 11.53778267349018 0.8060429419472577 M-0.141623098300804 12.691600515365183 C4.521503813555703 7.599094704956427, 7.052889361182766 4.0702921447507645, 10.778003507805002 0.7059361527755621 M-1.3221150925895433 20.34268249096411 C7.693804896791787 13.669413301554023, 11.990838334097592 4.369923067878052, 14.028791453226884 -1.1697959483671019 M0.03805884993167119 19.299061932508522 C3.3964190563151195 13.839286417210364, 8.063835129069739 9.729139403913623, 15.200276938735922 -0.39392494159517977 M0.8624662125668738 26.066904002516626 C3.73162438818676 18.332926138153887, 9.017779158935967 14.606837232391628, 20.133250782543683 -2.0542540388018367 M0.8413318975082849 23.892381809367894 C8.57874040731166 15.550948584485203, 16.134678006195628 6.968587007952564, 20.5998825545403 0.7280120099126819 M0.00010790401598370636 30.349130229789964 C6.984311218852335 20.85028830952934, 15.330184275361713 11.928257707378204, 28.03171288096568 0.7490533286717476 M-0.5452923560003384 31.33317898190414 C9.142906812407327 20.469552713520685, 18.12086057468349 9.216311701652923, 26.4936118653532 1.0749286985036672 M1.481366081060795 35.34273264724885 C8.8850697694165 29.4537431220551, 13.203647505668352 20.44398604005019, 33.88407412678639 -1.1619932017043944 M-0.15819872925994005 35.90977365505074 C9.613150209254146 24.504588093046884, 20.43881771830009 11.9443248582483, 32.663248456499375 0.36207637388848113 M1.2788280930043214 44.431551479358006 C6.736152966475909 34.932899033571246, 13.311642581872603 24.31443689430928, 37.933026032337295 1.9347940852027854 M0.14396233406374392 43.326501658741165 C8.926898062732787 31.91395943653983, 18.742547881924466 21.973926904198258, 37.38157417234157 0.8020602316689214 M-0.8960645478219575 47.36902444125049 C14.111784399036104 31.48042170052815, 31.07859336860001 12.157362213486849, 40.877527475911904 -1.2767666663647645 M0.14959767833344273 48.53034318857722 C16.25171272024061 30.158924283171423, 32.410887091680934 12.552144755015306, 42.09834134820454 0.6296627715556866 M2.1243970368754717 53.87021967716824 C18.96408530976938 35.381460864527426, 34.948854744702054 13.459284650487405, 45.74933246984172 1.7614497587260054 M-0.67591536112608 53.990455744269596 C16.578001729588884 36.87837871933105, 30.84171219729772 18.13525215632145, 47.62930057845104 -0.29797956084942356 M-1.159283140571901 62.52451240224431 C16.07569516054835 43.66841767562754, 30.35082822978904 27.777489250851595, 54.28646239242023 0.31919900471705276 M0.9987988100479157 61.298350771420104 C20.189260528648596 38.83114610210365, 40.013259290692396 15.65528855449196, 52.8421729484058 -0.9765530158357016 M-1.1963927308610707 66.38761784094343 C19.86454866254389 45.19541823368625, 37.61912375558086 23.73204014681869, 56.809733755978954 1.29054378674142 M0.4010272481896848 67.44742659996221 C12.03096761805785 53.00713929905663, 25.90390874921883 36.29404685594458, 58.845677802431595 0.34561010219864485 M1.770811865310968 74.12071996773032 C17.950291643408825 52.64693331804866, 35.02921628129833 34.738645176038304, 64.59623043881138 -1.9688227509589424 M0.12329138463348244 72.6595971848294 C23.856583734137967 44.49146006416, 48.29350343995896 16.616420765580656, 63.67550497585316 -0.30764520703568365 M-1.1360715897242954 79.12960024773804 C24.101040856790384 53.491516713952606, 46.837441130409545 27.186350234743927, 67.755831453249 -0.7289003932509885 M-0.40733006125795157 80.21192084662346 C17.740796480056375 59.46934839838034, 34.79499602186136 39.218788072338825, 68.48334256303325 0.9598800020631089 M0.2858220323266494 85.15667057520852 C24.902758548489576 59.5804085727831, 46.83669191611223 28.835701422352606, 75.60468317758533 -2.0480584958927466 M1.100712120840143 84.71613321005509 C29.248485833085237 52.65814881827887, 58.31785299297339 17.973634370365914, 74.22284914929661 -0.5584380207942559 M1.1971529937952923 91.19364991527483 C18.904341889124414 71.97283634864199, 38.307536700220794 47.905029265738705, 78.54172712415186 0.13964065624880106 M-0.007534599709494216 91.7188238457261 C28.458505422816156 56.072043660662196, 58.662755671013166 22.286884942631218, 79.83868157900599 -0.5718690800060102 M1.4337898939846383 97.07359724240169 C27.44793070076652 64.29104765614719, 53.13918326790037 33.68522380084529, 84.4221721712421 -2.1382347925843703 M0.6963887084273921 97.98096920856997 C16.161750008726 76.81217923813674, 32.812119237416766 57.248520905311715, 84.95246718748615 -0.2675056758614289 M-1.3363674178023075 104.61004028105381 C26.7394393709859 72.94681777023116, 53.552572551354174 39.69171284071318, 88.43402233118752 2.020190372740771 M0.1936753515850569 103.30456137852016 C20.341590550733564 79.31522969491608, 41.57970544413982 54.78431601232898, 90.05183156909982 -0.7100863627587302 M1.5434350707659448 110.73610424636425 C22.91211079885385 83.65706920247933, 48.45845023723872 53.26291038274406, 97.47154898228169 -0.7715782035338066 M-0.5124240758737599 110.35923680117847 C32.812544476535074 71.58719362404739, 67.17057618438817 31.35560657172016, 95.1763708091718 0.6828276090128043 M1.4362187379829052 117.09654478257498 C35.33217945459039 71.56414609736672, 74.06665399700893 29.188211088497184, 100.01181863685602 0.7242721937249357 M-0.36668848862429826 114.96180922625562 C34.48500058619878 78.63305366452536, 65.19336130353292 41.52163315585851, 100.10667925206477 -0.25897106494503674 M0.255977183151586 120.6962958641507 C35.812242595508344 79.57477865848927, 73.29205985221863 37.44900040422975, 106.48816517320407 -0.7928152912410482 M1.895278544667704 119.41231760868507 C38.20242358291639 78.98332949941988, 75.59799992699516 35.62907162557735, 107.05032173310352 -0.9335123849215492 M7.560853313556002 118.51134105511062 C30.40038354735595 92.56428131311677, 58.99202115863386 62.524336261851516, 111.16671760365732 1.7509095567012807 M7.152725888317512 119.79239736795478 C29.589552878143525 92.81910554601882, 51.80654403900908 66.24290742357202, 110.83086134665079 -0.3664724053149442 M13.773608083546634 121.15609973103331 C45.251251280382746 81.2597252001229, 81.15513117894801 40.765668821197394, 115.86381327751877 -0.6044630379833293 M13.432723578706856 120.32016661011205 C41.179778199920115 85.25295645237473, 69.54196237546884 53.583619410395414, 116.91777264904084 1.0683597038082766 M19.211151755454964 120.96604085705181 C52.79560419810812 83.07019118197644, 83.92447596035612 41.372275651653865, 121.13464370711992 2.5507546398381393 M17.252194085198468 120.1203399057587 C51.89303163138642 78.10133216263341, 88.24076850164187 36.21590413717699, 120.9275874846364 1.7398391380498808 M22.521661957574494 121.36326382740809 C47.01914265680783 93.48063963905238, 71.30085162471366 67.56819693054405, 118.71037262580171 6.361428635521513 M22.3675303681171 119.27730912960543 C60.638381855206354 79.30173542895012, 95.0190034485581 39.32645521305204, 119.37351304380968 8.812546298234444 M26.56111145223673 121.7691751072352 C46.69401912732228 96.8757695259723, 65.99788552595848 72.46055414782381, 119.87160821983872 15.54492668286322 M27.96362364682551 120.43532010225404 C48.52768144331237 96.45592986938925, 67.48953688757587 71.57274700506716, 120.3514040948665 13.771610148627147 M34.766740367735174 118.44181159077506 C66.17514324155653 82.05559392633904, 96.78945428301424 46.732931723520835, 120.66887186752443 18.05850442610518 M33.33983563164845 120.32329594841521 C54.363338849728464 97.3010185519715, 72.15598016470474 74.6021386078532, 121.07273172313158 20.777594438938657 M37.0335839664013 121.38851724316076 C62.376268940402674 94.97142018562269, 83.48487970989933 70.4949082149515, 119.73548008119033 25.483724580380475 M38.09902629194864 119.35501373869077 C71.83741786522813 83.11253010127297, 104.5354730625881 46.71522050143, 119.98996527296768 25.738416864770805 M46.08794487652865 119.20326645863423 C70.00751000872509 92.41551282912391, 92.02511895419852 65.69156026833436, 118.00495771013945 34.61848987015382 M44.833526088050874 119.15392784779141 C62.463538974284546 98.70112564209315, 80.4942758307378 78.2025493846898, 120.82648555070907 32.58888200605706 M51.3639208604487 119.97934070232851 C68.45970806117512 99.71080792656022, 85.7621100799237 79.98448972957974, 119.86786085367477 36.616171769889924 M49.31416373931788 120.15334659631891 C70.58356177491619 95.66294435677413, 91.80343765237158 71.31777503284721, 120.04590773768997 39.11731006773088 M55.37687704645496 120.14665186848558 C77.98007989880712 94.32779682545141, 99.12690947579095 67.41937413870387, 118.32859977412778 46.12473924472186 M55.17623845607441 119.121255608984 C76.20175438254324 95.14333819155621, 98.90835627618424 69.67096112755056, 120.32140430327314 44.79216562039408 M59.5999736968789 121.38441892223845 C79.66048001067593 97.73917902020966, 95.80708165328053 77.19031566648002, 118.72285209979201 50.87879168889156 M60.10854770768319 120.76049445638846 C73.93193756050972 103.80629465097235, 87.28099713643999 86.5521815958177, 120.56561820778334 51.041590538757355 M64.83763844001406 119.45849125782911 C75.98018029564713 105.21030400867174, 88.3281011345968 94.9126435962902, 120.59409059299892 56.61223556753209 M66.53935945446902 119.233580013243 C77.9942221563369 106.68245740373133, 89.8959933171885 92.07772930092435, 120.11969067058331 56.85358064342251 M69.10209403819192 121.1340253403906 C86.44020006582012 101.25106124124471, 101.54198102031519 85.24978274629444, 121.41099635305156 64.65031735510817 M69.82543991579462 119.76288310014942 C88.26741189356744 99.01429421118777, 105.80787036918802 78.64186069599778, 120.78317437300731 63.055518639323026 M75.98683061970598 121.01280806416483 C92.38840240395035 100.34722977938391, 106.91773156090153 84.37215939163258, 121.7242817292529 69.04875227608451 M76.93802580198474 120.1554518418184 C91.0044463775915 102.0815661640759, 107.93520292038933 83.01653476579503, 120.28335637138959 68.14080285639236 M80.54313344688775 118.4459333942849 C91.60921298873215 110.70664874077181, 100.52849510254853 97.78035524949443, 118.32351323393442 73.73285304559417 M80.65185208240213 120.40318830885178 C91.66247057476944 106.4285593261781, 103.82109813654985 93.6439579388075, 119.74458101009287 76.0954759902323 M85.65355514803072 118.37112572499274 C98.79755995676662 108.48792294731703, 106.26234001087747 95.98689630820962, 119.95452474538968 82.0895628078791 M86.23112421737154 120.20767187596022 C99.30332011660454 105.58886276701853, 113.77740416715488 89.36280625116736, 119.71816312444196 80.67775804055358 M91.90844348546639 120.22541652142141 C100.90019718535336 109.5905546654318, 113.35706720829563 97.19633338966085, 121.19594527595012 85.88013177807237 M91.61854592625573 120.58033586374555 C100.97417917115924 107.49054167502294, 111.55288943394639 97.7907478640237, 120.37141580879955 87.018222952958 M97.97941358748827 118.78246767781285 C101.96819903344597 112.12668409971798, 110.3798008864096 104.87156527219449, 118.17661217491874 94.83215018063869 M98.12129141937945 119.36729089691845 C104.98704869388158 110.94998567267852, 112.70341370435993 103.45105546439024, 119.5175636194999 93.89933155737903 M102.49587571642785 121.0652481593001 C108.13648227866688 111.99224537195391, 115.73158177221299 104.94912716488437, 121.73239404159861 97.77867699004275 M102.60003316610543 118.84950154608072 C106.4063434680892 113.8373229244102, 111.96545775422814 109.377344839577, 120.0850654878773 99.5820603087501 M107.7559436608004 119.94434540547735 C110.49298558633858 116.87095096645675, 117.45659151021526 110.29509994452654, 118.63973664673775 103.89370794878197 M107.50552995567122 120.02438511500439 C110.97892534435046 116.24756080636425, 114.69012629024252 111.66868222434113, 119.61246444196239 105.63711123722462 M113.07762194795859 119.43620127708495 C115.60422582877878 117.35675236762475, 115.5354845815335 115.25184128496318, 119.64363780657088 111.60663456045361 M112.7469585480946 120.08322644251241 C115.24819612678066 117.8122163013375, 117.44621718418324 115.1603493452531, 120.30430092655381 111.27609925637292" stroke="#fab005" stroke-width="0.5" fill="none"></path><path d="M0.11049487069249153 1.6979031972587109 C33.797278855368496 0.38829188954085103, 66.80707996040583 -0.1775320230796934, 119.29690589383245 -1.0555988140404224 M-0.27729527093470097 0.6799767110496759 C41.57473906204105 0.030390827171504542, 84.306249942258 -0.8944160657003521, 118.1148841585964 -0.4267803933471441 M116.56193103268743 -1.0271211452782154 C117.64166780572384 46.586269601807004, 118.96170505147427 91.93102555274965, 119.20502616837621 117.81817368790507 M118.42512824200094 -0.6346303727477789 C116.63134492453187 29.388830554485324, 117.77308506783098 60.19361205361784, 117.1660835351795 118.01832664944232 M117.27788211777806 116.6477072648704 C74.45817884542048 118.15420738417656, 31.77228370904922 119.2925536986068, 0.9256349988281727 119.32702843472362 M118.6673829164356 117.24075926281512 C77.45189734101295 116.55644212249666, 35.513227180019015 117.58100275281816, 0.5563694443553686 118.50944847799838 M0.41862644627690315 117.51718823239207 C-1.0015272517129779 85.773941494897, 0.48213761854916815 57.228612695634354, -0.14270804449915886 -0.660016018897295 M0.7628842797130346 117.18706602789462 C1.1730641888454556 79.80322082713246, -0.506938679330051 42.820935456082225, -0.8012332115322351 -0.32835387252271175" stroke="#000000" stroke-width="1" fill="none"></path></g><g transform="translate(615.885732293129 312.0564321279526) rotate(0 43.5 12.5)"><text x="43.5" y="18" font-family="Virgil, Segoe UI Emoji" font-size="20px" fill="#000000" text-anchor="middle" style="white-space: pre;" direction="ltr">Command</text></g><g><g transform="translate(459.3168874979019 112.65060264086065) rotate(0 62.25908642770253 4.604143894807919)"><path d="M-0.7776423923671245 0.8240780465304851 C19.824608652542036 1.9674914397546162, 102.09733508502444 6.278012130532915, 123.07138407304883 7.679937639235561 M1.0149566223006694 0.21111507561989118 C22.035368176974977 1.4504953423109905, 104.65481713570965 7.784080756402144, 125.29581524777227 8.997172713995953" stroke="#000000" stroke-width="1" fill="none"></path></g><g transform="translate(459.3168874979019 112.65060264086065) rotate(0 62.25908642770253 4.604143894807919)"><path d="M97.84106161307525 15.752123778354584 C103.05798166826881 17.148680609951583, 112.99690118585926 13.164614716376796, 123.58776060464793 7.491494458884974 M96.19373305935395 17.55550709706193 C104.66626814584569 15.643834854636642, 113.00872193410245 12.691835747445285, 125.23303059647792 8.319270084396978" stroke="#000000" stroke-width="1" fill="none"></path></g><g transform="translate(459.3168874979019 112.65060264086065) rotate(0 62.25908642770253 4.604143894807919)"><path d="M99.24874631764955 -4.720746713062766 C104.24676107816552 1.8836491786526275, 113.82696994470794 3.1165446393742706, 123.58776060464793 7.491494458884974 M97.60141776392824 -2.9173633943554194 C105.71631640052294 0.7127615857371947, 113.67834708987125 3.2935020263919284, 125.23303059647792 8.319270084396978" stroke="#000000" stroke-width="1" fill="none"></path></g></g><g transform="translate(338.38573229312897 45.556432127952576) rotate(0 59 59)"><path d="M0 0 C0 0, 0 0, 0 0 M0 0 C0 0, 0 0, 0 0 M0.311392647805636 5.614640513111942 C1.845274065694647 4.330784991515031, 4.05495340026289 1.1527330880125333, 5.657808805587238 1.02820894083355 M-0.6031290694745133 6.3368256830173655 C1.3967001596412605 4.229348417187986, 3.138414179351059 2.275148107879313, 4.729367949398703 0.2596398640272432 M-0.6507965407241477 13.580361298143446 C2.837177910078254 8.786341028093481, 5.807540119437734 4.249387867771841, 12.079453377378119 0.5925903166725996 M-0.2851017302740706 11.63455653381306 C4.195210291641595 8.060909751029882, 8.602678552387074 3.321899826959568, 10.827565342140328 -0.49475864664765584 M-0.20670273812024398 18.41244507851141 C4.265345618941996 12.827078259390317, 11.363157499740462 7.641673675199339, 16.96415391145595 -0.28857477317331526 M0.7170307961711426 17.953878858034187 C4.870540929787232 12.413780676180084, 10.847466832632714 5.7894173745374715, 15.258916167079885 0.18026644987286833 M1.5398635829053138 24.715367609351038 C5.292453402827534 17.733078465394968, 12.597604998635827 11.487948305145478, 22.16831798320439 0.6745890541165593 M0.779197810422561 24.61786409439063 C8.202998576896569 15.561060679881653, 15.615022698810655 7.324605416545655, 21.53820432377782 0.4581348741590503 M1.1746709542860643 31.682129816848985 C10.320631537960388 17.25540573320162, 21.354663394718198 6.7182408314218485, 24.449321738120528 -0.8538029497477471 M-0.2624118709425076 30.257073208455196 C8.79522085850818 19.47944495617277, 19.576124861639723 7.910969661528547, 26.06765865595302 -0.11244225744039404 M1.5296817253250161 35.58719692546998 C7.127519046108567 25.213461476930142, 19.137993201410538 17.994212464167607, 31.033467804497874 1.2202236094757204 M-1.0711361915898046 37.50552953016137 C10.712870571938826 23.745969211401462, 21.495266648977378 11.37102066515643, 32.18960962393025 -0.6580105702147598 M0.6438894953251832 43.310502909678746 C14.255621865903919 25.969481441539628, 25.12553528836164 12.974323484567634, 37.85485394466792 0.4899501969200095 M0.5549212798149341 42.72577201444261 C8.993250379603 31.45922080032473, 19.21993973250552 21.967707482961735, 36.424885947072255 0.5047382564377507 M0.9201420266180449 49.47657923460834 C16.286934174671895 29.132258328446255, 30.277173759969784 11.171777027261797, 41.92884528692417 -1.114711293172931 M-0.8477857373655624 49.83548398190074 C14.171738909329523 33.08102424555644, 26.10005568594807 18.865525265920763, 43.15878683570378 -0.6062101527721637 M0.8425544474971147 54.046587794500695 C13.304536877744868 39.479563555336284, 27.437863945449756 22.73305105465456, 47.22860209359813 -0.41454189567005173 M-0.3783330328065304 54.58702605724643 C13.007477788346202 39.214073606791054, 25.118999022120544 25.80251119579934, 46.83010975918758 -0.03801622724270359 M0.8530370202938826 59.23099755448888 C18.069351249963518 40.92479524961884, 35.750538481756394 18.8773579341524, 53.05855199298328 -0.143692216329395 M-0.58229813714523 60.16761281108151 C20.508641156312645 37.50915171164033, 38.60785583688765 16.03980220184583, 52.6171226778484 -0.37816309226316136 M-0.9312916556886464 67.08161748903761 C14.377972168268224 52.52982095570026, 25.738993412257503 35.99235596689934, 59.930917747411144 -0.03700579001791837 M0.5781528809525938 67.47884569833944 C19.15444439776898 46.1331865317113, 37.201687045045375 23.65380541784708, 58.626591811048996 0.8457200727682554 M0.43871826885253284 72.63072532261161 C23.736631842679266 45.51855529137269, 43.08732385838651 20.54950172863405, 61.939189485175206 0.00730427750632856 M-0.8064116721788039 72.96334179895369 C15.229448888513897 53.62651813621557, 32.76799822366689 35.49227283290388, 64.57975386911411 0.6906813925622473 M-2.09892919375109 81.03019627034394 C24.998709361192628 51.65579060562532, 49.83116727281742 26.13088164947925, 68.63465246860697 0.8403319513763918 M0.8766337978233167 78.43136255852608 C19.565204966724433 57.55890484177418, 38.642687415257946 35.419411330566746, 68.00134382140651 0.3986229377206101 M0.10003733479399557 85.14353597647653 C20.74059635060865 60.61244042936541, 43.72710029807497 38.223529614349744, 73.39985932599994 0.8998016258342432 M0.7918853762837159 85.34034672676728 C14.759446013628514 69.39338169780883, 30.240484916622687 50.58666420925985, 74.90556712825092 -1.0788759170459343 M1.262684366819279 90.45855715614245 C19.470794428779858 72.10334144249285, 36.682671694575085 49.711913511945056, 79.32515781968561 1.1227447660129002 M-0.15506259243486653 92.39508699927912 C27.160860454094617 61.08043604620414, 55.964212166564195 29.14422905862839, 79.98512750901011 0.5196181488643816 M0.9162867516277657 96.67941253380641 C21.767926985912208 72.3062026801306, 40.76064360669352 50.0522434444051, 83.58216307795749 -2.217176733845662 M0.7122956980018245 97.82726295599505 C24.40664148538839 70.11329975396224, 46.39767679115465 43.52672331580961, 85.29719917400882 0.29021576016228323 M1.0451505885224606 102.86572358393315 C23.638342872061173 73.91868889406653, 48.66942026901341 45.22933623403896, 91.30028536314705 -0.5969939086084111 M-0.689299571071956 103.22206980184856 C30.532779273324977 70.46264361575074, 60.493958666836804 36.404316528185376, 90.4524545926098 -0.2361185125504477 M-0.7525638601651465 108.57170927165569 C32.78267895514155 73.16643253806842, 63.04361843936618 35.79372389787861, 95.94020230354786 -0.4071073640333793 M0.2664490697065318 109.34484710744144 C21.352481471201447 85.11965734774918, 42.48591345898158 60.90608568184911, 95.30103672513783 0.43125720543690704 M0.45257103385845454 115.43821899121603 C23.88101619074703 89.98522202572526, 44.58210306350883 68.2730315666207, 101.17038666149134 1.9613893650124723 M0.9453095806620482 116.42061174748441 C37.56238626443646 71.56425055152886, 73.66248317079027 29.874621929187285, 100.1215867909556 -0.6571612652738636 M0.765955119896276 117.84128046707886 C25.679237445267866 92.54654414425976, 50.969046398651805 64.45967535140528, 105.24057856527102 0.9540331727710978 M1.6097252681288552 119.47010580191093 C27.28929211336789 88.1330739211333, 53.943478505593994 58.208147253559616, 106.30721650038791 0.6337992000279442 M8.562137555232333 119.50297101326339 C29.197455015442998 95.453058325978, 51.807905283885596 68.71073826941925, 110.85831327721841 -1.234331975624464 M6.824491871422218 119.60816781520896 C49.19346483671176 72.96403162980471, 88.87653722219989 25.35736970100288, 110.55453582279749 -0.8758343280558805 M13.705285544217105 119.15880375534819 C51.692144893818025 75.05292607366424, 92.74093520328987 28.645887828921587, 116.90633439663651 -1.0675221057094646 M12.989726301923866 120.3986190184258 C40.635163163875376 89.10812843228442, 66.28643545393336 58.55710406211587, 116.8935661895186 0.5983521054081606 M16.578715599182075 118.6403414084663 C51.91265604777228 78.14996960763706, 91.80578857415865 35.43328864374003, 121.6312396858568 1.7352442476491134 M17.682897903996533 120.62437710716327 C45.68405425046108 86.62472250933094, 75.2643857333078 54.02135420548494, 120.18888631991396 1.8959168210218351 M24.522011598420747 120.24077711685969 C46.52028274133096 94.21248620069152, 71.24514129909791 66.65529506108608, 119.08059912822023 9.564926879807096 M22.40844651296497 120.34053708113207 C59.314001236393715 78.83413395887514, 95.61747005872749 36.60861491110542, 120.88925027935579 6.964643344609719 M29.707552554264623 119.62761109566141 C46.37043558174098 99.78699166364332, 63.80368057126742 75.62209664819898, 119.47642716000138 15.759987274560913 M28.786810223191935 120.474547885934 C54.67088363959646 88.48701115083804, 80.21079374625523 58.43988585290785, 119.71355971114991 14.385363765436992 M33.51398484500721 118.67997398911338 C53.62501090921146 98.02461843283484, 72.41545726017506 76.74772622313225, 122.43565140949373 18.273774826152483 M33.24039762000218 120.35103577127974 C68.69837759283539 79.85475367285616, 102.33926681579099 41.056235106731194, 121.18383257562105 19.726844958214322 M40.40274998297998 118.40130351234869 C56.81936509019921 100.69177354306099, 71.7575624984486 82.29419955555286, 118.78299463902877 28.058945999714886 M39.182615547758424 119.29198093277112 C56.32952259665191 99.09491474883562, 75.62943659972943 77.96613232811724, 119.75058509213196 26.61770774354354 M46.29155684647647 119.75666780960927 C68.96028356048579 91.32053005436346, 97.78641509008912 61.95773219896461, 118.26838794790953 34.659497269712844 M43.70384134178546 120.14154087011883 C61.21512093888017 100.76342332332318, 76.32006060179852 84.21536483752342, 119.8227449420169 33.02595982635812 M48.43090944782816 120.58544209602816 C69.26712299042865 99.87162492209053, 86.40977112659783 74.68594854499867, 118.72379368543899 39.349893860611054 M49.76045059644602 120.86622702892465 C67.35633909503254 96.05761855077432, 87.23396348828146 75.18622250576689, 121.23697418161011 39.0856245365915 M53.777579165328554 120.43863201584733 C79.10800102576786 89.75635896869267, 106.03509136412285 59.95871126065552, 119.22002836394864 44.2741984875426 M54.860789397064856 120.07972815889931 C77.82548291188326 93.17263890742402, 101.21257800411414 66.9151097704459, 120.72699215527433 44.923369569845526 M60.871132511309135 121.49155028419982 C75.58177692429541 105.8663274364284, 86.40412624813051 88.12036737838608, 119.78417586173201 50.03810429474941 M59.254202088004696 120.64308695564459 C82.24225012613088 93.75286715301942, 107.74116193963704 65.52299501001225, 119.95348869833434 50.93803992583087 M64.20740336406344 121.38114004532758 C84.24115345937156 97.45320889180014, 105.6423141286162 73.93775692231415, 119.27611519112057 56.62161149736455 M66.61700350459033 119.1895234188712 C79.213693075885 103.28606826223643, 92.16328106753885 89.62077532039467, 119.69315190515286 57.40083455014935 M72.11502073592294 118.11865151436368 C89.97829199198621 97.73249414618823, 106.51216351341844 77.8776617994129, 119.10593370141734 64.97106031985274 M70.24150674118448 119.72461149418095 C85.53653995582599 104.68579477197915, 99.24982499503724 88.65805895171432, 119.86858133206417 62.73483927273443 M75.12888100518114 118.92696533555002 C84.03793609695768 110.67877575919215, 94.90744851928743 96.86810767456791, 120.39074999192532 70.13825973667869 M75.7219953831119 119.1511024312845 C91.75794289944531 102.51452081895046, 107.07190798601162 86.1100499433582, 121.0176109104025 69.34165554851958 M79.86667568416955 121.15326922401971 C90.75732878728762 106.90151072718149, 103.75341884843893 95.44083616275492, 121.11153682497599 74.41961621297546 M81.14375127473535 118.8691014257837 C89.15106475363731 109.21041876430301, 99.11514129871878 98.98115419109746, 119.76263185953059 75.4280291981066 M85.40236365118166 121.10638132401465 C94.75943298437268 106.9514375052332, 105.08454158586372 96.4408272651473, 119.83053432886288 80.948166642985 M87.76902675137957 120.3008909773892 C100.48824457008043 105.773224903271, 111.13632694373825 89.68812554777563, 120.84050588977323 81.2853833462062 M93.14269891854897 118.96942685066793 C97.69630967347261 112.05737559989429, 103.08911016436551 103.59741537977533, 121.56777776591747 86.60625499184037 M92.22607240740732 120.49110753170285 C99.78532943420097 111.53870728157216, 107.3098620826891 101.79263286243318, 119.29159297049313 86.88999506342019 M99.20070286456499 119.63716144822148 C103.44595725376817 113.23582256190208, 111.24503648361623 105.11000761567637, 121.51851073544273 95.6175652340063 M97.19510932814333 119.63156483843532 C106.78595700039358 110.26583478427563, 113.82398825432075 101.48641647041342, 120.48966453302452 94.18252830468204 M104.27219200156121 121.62864783180834 C108.21338541188355 111.7970026872234, 116.07315442346238 106.05788060150473, 122.21000808674174 100.68625009394748 M103.59735685795037 120.66143059318841 C107.92875462000922 115.16648173205948, 110.82960919731148 109.31092683066494, 119.61122638370173 98.89466264992518 M109.26714923269027 118.74850610174542 C110.30872847699894 116.9803829923884, 113.88699800908867 113.38673063283346, 118.73035258087127 104.21546450839234 M108.57531612579622 119.57260321924767 C111.83371856704441 114.76058917836066, 117.01558152449428 109.31922202964174, 119.15447322637571 106.34314365344909 M113.06715808434737 120.33504089982092 C115.57115428058958 117.8225546616862, 117.87392534778537 114.20150475545934, 121.36877784768379 111.44155912123891 M113.23957475152191 119.35998208242312 C115.20350540177232 117.09744851105981, 117.33424611131528 115.47182851168924, 120.61800830506047 111.64496715138006" stroke="#e64980" stroke-width="0.5" fill="none"></path><path d="M0.6489457078278065 1.2582625560462475 C34.88489190153778 0.3512775612995028, 67.20813744217158 -1.0311776684597134, 118.12564374879003 0.9493978433310986 M-0.9601416382938623 -0.997022083029151 C38.40847316905857 0.5123024518415331, 75.10157184787096 1.5602338249608874, 118.47399755381048 0.3359199855476618 M117.97547723725438 0.2617195062339306 C118.68995101433248 27.864159318432215, 117.58546967487783 51.33016648292542, 119.51298536732793 119.3166662864387 M118.09364410303533 0.2944976184517145 C117.31192799981683 39.26403158903122, 117.7123446720466 79.88726161979139, 118.05789460800588 118.63062305189669 M119.91186060383916 117.42320792004466 C74.76651883460582 118.05392872650177, 27.339579927921292 116.49893473941833, -1.9691912941634655 119.16703943535686 M117.4120534863323 117.23383874632418 C94.08267756104469 118.05160186413676, 69.75246812440454 118.28998962763697, 0.0630925502628088 117.54049373604357 M1.68478037789464 116.03362135216594 C0.6038027160242201 92.03102907128633, -1.003310764543712 65.41324437707662, -0.23092041537165642 1.2406295947730541 M-0.13095108605921268 118.8601248357445 C-0.30800707709044217 91.56622038558126, -0.2301879085227847 65.83140750341117, 0.15066315792500973 0.6612961981445551" stroke="#000000" stroke-width="1" fill="none"></path></g><g transform="translate(379.38573229312897 95.05643212795258) rotate(0 20 12.5)"><text x="20" y="18" font-family="Virgil, Segoe UI Emoji" font-size="20px" fill="#000000" text-anchor="middle" style="white-space: pre;" direction="ltr">Role</text></g><g><g transform="translate(96.1323595046997 145.80163979530334) rotate(0 37.127057035598 45.48441915133037)"><path d="M-0.7688933171331882 0.7506886638700963 C11.462393216540416 15.849622289091348, 60.534137285004064 74.67421776428819, 72.892493673414 89.56210936680436 M1.0282989620324225 0.09919626706279816 C13.65798963707251 15.454437793726102, 63.145940490678576 75.6467588787619, 75.02300738832913 90.86964203559793" stroke="#000000" stroke-width="1" fill="none"></path></g><g transform="translate(96.1323595046997 145.80163979530334) rotate(0 37.127057035598 45.48441915133037)"><path d="M50.61104133726721 73.48659799681727 C55.136370033235224 78.48557707071511, 62.63609994160932 81.8464006214405, 74.04825773007236 90.72888832309283 M48.48019899988239 75.5961300941718 C59.76061237592002 81.83108822155107, 68.8810032362826 87.2057713692523, 75.6916720393207 89.9810100491438" stroke="#000000" stroke-width="1" fill="none"></path></g><g transform="translate(96.1323595046997 145.80163979530334) rotate(0 37.127057035598 45.48441915133037)"><path d="M66.60218917610277 60.625680720730614 C66.8795594220054 68.84971804184251, 70.24188036554966 75.53806222900337, 74.04825773007236 90.72888832309283 M64.47134683871795 62.735212818085145 C69.65879973123381 73.86409463918329, 72.64055380131941 84.17579048562042, 75.6916720393207 89.9810100491438" stroke="#000000" stroke-width="1" fill="none"></path></g></g><g><g transform="translate(655.1928661465645 254.2782160639763) rotate(0 -0.5316007743589353 -37.62418998964131)"><path d="M-0.635946125909686 0.6445562135428189 C-0.7654511443028846 -12.192186644549171, -1.312513116126259 -63.020628530656296, -1.2270160745829344 -75.89293619282543 M1.2310434286482632 -0.06265571968629957 C0.9630269867864748 -12.17432083007569, -2.0177013710451623 -61.71288172102843, -2.294244977366179 -74.2993024428375" stroke="#000000" stroke-width="1" fill="none"></path></g><g transform="translate(655.1928661465645 254.2782160639763) rotate(0 -0.5316007743589353 -37.62418998964131)"><path d="M10.246544976786907 -46.955492757178135 C6.0802691398380935 -52.45327521988312, 1.90970243074994 -62.53540321495748, -0.6861884898506103 -75.80459357881918 M9.715484144234296 -45.79294090430368 C6.764661472645031 -51.75029183621594, 4.57637873352987 -57.50490784446108, -2.9361530725844203 -73.84496672255918" stroke="#000000" stroke-width="1" fill="none"></path></g><g transform="translate(655.1928661465645 254.2782160639763) rotate(0 -0.5316007743589353 -37.62418998964131)"><path d="M-10.25558060833528 -46.07070528116054 C-9.048337969090344 -51.69209343005363, -7.837072731813295 -62.00647917247254, -0.6861884898506103 -75.80459357881918 M-10.786641440887891 -44.908153428286084 C-9.536167051157474 -51.11574631958729, -7.530150536638143 -57.05137104494704, -2.9361530725844203 -73.84496672255918" stroke="#000000" stroke-width="1" fill="none"></path></g></g></svg>