<svg version="1.1" xmlns="http://www.w3.org/2000/svg" viewBox="0 0 1125.736046488937 921.3849943771961" width="1125.736046488937" height="921.3849943771961">
  <!-- svg-source:excalidraw -->
  
  <defs>
    <style>
      @font-face {
        font-family: "Virgil";
        src: url("https://excalidraw.com/Virgil.woff2");
      }
      @font-face {
        font-family: "Cascadia";
        src: url("https://excalidraw.com/Cascadia.woff2");
      }
    </style>
  </defs>
  <rect x="0" y="0" width="1125.736046488937" height="921.3849943771961" fill="#ffffff"></rect><g transform="translate(22.233750497795597 106.84381895732741) rotate(0 35.3515625 32.53773834745763)"><path d="M37.27009891702335 0.6130549195905175 C44.316234554587936 0.3864694964328663, 54.14435267471132 3.1267173587531474, 59.56424150724329 7.529188856125881 C64.98413033977525 11.931660353498614, 68.8124958026552 20.25759018129066, 69.78943191221515 27.02788390382692 C70.7663680217751 33.79817762636318, 68.99063243378225 42.05073405288317, 65.42585816460291 48.15095119134343 C61.861083895423576 54.25116832980369, 55.01287284374807 60.98521338991813, 48.40078629713912 63.62918673458847 C41.78869975053017 66.27316007925882, 32.705321790711544 66.04471509439256, 25.75333888494921 64.0147912593655 C18.801355979186873 61.984867424338425, 11.060480583283663 57.141039233417686, 6.688888862565115 51.44964372442606 C2.3172971418465655 45.758248215434435, -1.1128778721197095 36.85004513422028, -0.4762114393620891 29.866418205415744 C0.16045499339553138 22.882791276611208, 5.407179536341116 14.337138729727709, 10.508887459110838 9.547882151598852 C15.610595381880561 4.758625573469996, 24.167726696553125 2.410418684469427, 30.134036097256246 1.1308787366426074 C36.10034549795937 -0.14866121118421205, 42.506849501013924 1.210315108943476, 46.30674386332957 1.8706424646379354 C50.10663822564522 2.5309698203323947, 53.265251603588176 4.788190901433006, 52.933402271150136 5.092842870809363 M36.797231093873464 1.2043133667396049 C43.76812242391183 0.7700552102248217, 54.04878786204337 2.855376417283086, 59.3819423787998 7.290347833819734 C64.71509689555623 11.725319250356382, 67.73261749817047 21.152759384362962, 68.79615819441204 27.814141865959492 C69.85969889065362 34.47552434755602, 69.07556461566413 41.5379891086403, 65.76318655624922 47.2586427233989 C62.450808496834306 52.979296338157496, 55.52858991151555 59.21271358421285, 48.92188983792255 62.13806355451105 C42.315189764329546 65.06341352480925, 33.17706598572548 66.59096733143656, 26.122986114691187 64.81074254518808 C19.068906243656894 63.03051775893959, 11.037624429730098 57.42508224746978, 6.597410611716796 51.456714837020115 C2.157196793703494 45.48834742657045, -0.8666886819168269 35.59618953212698, -0.5182967933886289 29.00053808249008 C-0.16990490486043086 22.40488663285318, 3.812516419538624 16.591375369994054, 8.687761942885984 11.882806139198724 C13.563007466233344 7.174236908403395, 23.827088837982792 2.6429696396857683, 28.733176346695533 0.7491226977181071 C33.639263855408274 -1.144724244249554, 36.77247773517671 0.7061803763718645, 38.124286995162436 0.5197244873927573 C39.476096255148164 0.3332685984136502, 36.85997661627573 -0.7892343536589503, 36.84403190660989 -0.3696126361565355" stroke="#000000" stroke-width="2" fill="none"></path></g><g><g transform="translate(53.72209795542284 171.6924811361144) rotate(0 -1.5399130996626127 39.18640510437032)"><path d="M0.7620008658617734 0.1437960136681795 C0.11286968464862823 13.214468578053483, -2.347033338486576 65.96332243508581, -3.0919038843237443 79.19912523323576 M-0.29708740890026086 -0.826315024495125 C-1.141471778723483 11.797690142867928, -3.125034858449721 64.17195229410115, -3.8418270651870055 77.23726178275327" stroke="#000000" stroke-width="2" fill="none"></path></g></g><g><g transform="translate(50.42495812491387 252.60482223780798) rotate(0 15.148202331014204 24.40876965076899)"><path d="M0.1437960136681795 0.37737577669322486 C5.270656784268171 8.229565612211987, 26.244263466159257 39.82143599011086, 31.536254470523897 47.875139878974345 M-1.2398498084954919 -0.4701058858819307 C3.687954528069199 7.498956631612196, 25.29569766799957 41.43179302377708, 30.74892030519292 49.28764518741989" stroke="#000000" stroke-width="2" fill="none"></path></g></g><g><g transform="translate(45.83014880287982 249.0825764750956) rotate(0 -13.827465341469349 22.391798753702403)"><path d="M0.37737577669322486 0.30611675865948196 C-4.242847876488571 7.842546322346152, -22.540631453391935 38.14107482880563, -26.959341053229004 45.3623733957882 M-0.8836406698822975 -0.5787758883833884 C-5.749380678101783 6.597679651007474, -23.747470076900743 36.093879434989994, -28.032306459631947 43.589240919205075" stroke="#000000" stroke-width="2" fill="none"></path></g></g><g><g transform="translate(23.511557701184472 186.6752671530624) rotate(0 15.004814200685303 14.148082126638059)"><path d="M0.30611675865948196 -0.23794274814426897 C5.449140602007172 4.649933103996065, 26.17404622711073 24.905096941081414, 31.00193907375432 29.704630889535224 M-0.9923106723837555 -1.4084666362591087 C4.038350109655074 3.0920767758625707, 24.96965517612006 22.724674570405462, 30.403335882322708 27.889977294203167" stroke="#000000" stroke-width="2" fill="none"></path></g></g><g><g transform="translate(55.83412126050706 215.30344511916456) rotate(0 21.240705624468376 -12.526488459116564)"><path d="M-0.23794274814426897 0.6656043279916048 C7.083063400606233 -3.6718453394890975, 37.070748424132255 -21.42909872657118, 44.303412669196234 -25.718581246224733 M-1.8220014202594759 -0.030557345151901227 C5.359283251459317 -4.283424810198063, 36.34313039628127 -20.748921121493556, 43.66328835901569 -24.739157971305342" stroke="#000000" stroke-width="2" fill="none"></path></g></g><g><g transform="translate(10.444092129152239 112.5492740386556) rotate(0 51.11545412162323 10.600592372920374)"><path d="M0.6656043279916048 0.5865164827555418 C17.36809283693633 3.9775609195232384, 83.77059215555596 16.89508667141199, 100.52104781232784 20.10832387246191 M-0.44409212915226814 -0.15116630913689733 C16.590589545213945 3.416166188176721, 85.90357410345855 17.866693877335635, 102.67500037239874 21.35235105497762" stroke="#000000" stroke-width="2" fill="none"></path></g></g><g transform="translate(43.23051156125865 46.99183440452208) rotate(10.74366233694554 26.18366933021281 36.80112358758396)"><path d="M-1.7714348454028368 -0.9314224403351545 C13.97921514039459 -1.591348640033047, 28.439518980562134 -0.29411797911767223, 54.08442556976443 1.5022006947547197 M-0.5832102438434958 -0.14168056938797235 C18.558154606024406 -1.0374999285897777, 35.00846511171506 0.4941506444254353, 52.438774723812095 0.2902157297357917 M50.41213142990237 0.19177541323006153 C53.16783451666898 16.156915258940646, 51.645432766581244 31.04817395535924, 53.1965497147954 72.44905266013335 M51.69766273002242 0.07316350843757391 C52.4474488994811 15.7404097323124, 53.47107948872785 30.67608761970041, 52.55514507393455 73.20563366577368 M50.746499837628654 74.09143194403838 C42.969006095451796 74.70741691762797, 30.47086835608256 72.65495809490076, 1.5363192539662123 73.26895537820052 M52.87857012848472 73.25644185707311 C37.148319422900926 72.74646522930371, 22.88063986142113 72.52965121796834, 0.3851789990440011 74.57771002814512 M0.2816581707447767 73.52380719628523 C1.763662645863898 48.798784415275456, 0.846748719262488 22.189943961536187, -1.972928823903203 0.7527413684874773 M0.8295375863090158 74.21107589766721 C1.3171859827243386 52.745542399298245, -0.17289535735020045 32.499307263661215, 0.5423685172572732 0.6706965258345008" stroke="#000000" stroke-width="2" fill="none"></path></g><g><g transform="translate(66.89043749459296 153.65269905270299) rotate(0 -7.3916222224953 6.530380431100639)"><path d="M-10.52921562459416 -1.7560707414315253 C-6.425390823177293 -0.37355673447687887, 9.737376066885997 6.137022439796007, 15.822198419140356 7.684383247252987 C21.907020771394716 9.231744054709967, 22.714378200232925 8.320205333910375, 25.979718488932008 7.528094103310359 C29.24505877763109 6.735982872710344, 34.88610609872213 1.5625745644925828, 35.414240151334845 2.9317158636528973 C35.94237420394756 4.3008571628132115, 32.30128794400327 13.709958440841302, 29.148522804608294 15.742941898272246 C25.99575766521332 17.77592535570319, 23.005010270601687 16.022182748531698, 16.49764931496499 15.129616608238567 C9.99028835932829 14.237050467945435, -1.0225061591783255 10.822421949294874, -9.895642929211897 10.387545056513453 C-18.76877969924547 9.952668163732032, -30.086934953040227 14.917492763203937, -36.74117130523644 12.520355251550034 C-43.395407657432656 10.123217739896132, -50.02704849754051 -2.5278788441269526, -49.82106104238919 -3.995280013409956 C-49.615073587237866 -5.462681182692959, -42.12492654599322 3.415861526738248, -35.505246574328496 3.715948235852014 C-28.885566602663776 4.01603494496578, -14.247275798844544 -1.3950763812032942, -10.102981212400861 -2.1947597587273626 M-8.886356330235518 0.5649272445238025 C-5.035155610787912 2.030380513272539, 9.020050053980306 7.423053469374304, 14.65597846876614 8.801158733480111 C20.291906883551974 10.179263997585918, 21.338206974271632 10.15895695610666, 24.92921415847948 8.833558829158646 C28.520221342687325 7.508160702210631, 35.70566113568788 -0.4262360614219012, 36.20202157401322 0.848769971792025 C36.69838201233856 2.123776005005951, 31.503564425933437 13.728017691907597, 27.907376788431506 16.483595028442203 C24.311189150929575 19.23917236497681, 20.833118491838306 18.524130061240644, 14.624895749001633 17.38223399099966 C8.41667300616496 16.240337920758673, -1.1437743857385296 10.523857661628645, -9.341959668588531 9.632218606996293 C-17.540144951438535 8.740579552363942, -27.623664889695842 14.526720460215019, -34.56421594809838 12.032399663205549 C-41.50476700650092 9.538078866196079, -50.98688607553543 -4.377606236565752, -50.98526601900376 -5.333706175060525 C-50.98364596247209 -6.289806113555297, -41.365886959266646 5.695752405292683, -34.55449560890834 6.295800032236915 C-27.743104258550037 6.895847659181148, -14.374677097781003 -0.44317734289220034, -10.116917916853943 -1.7334204133951276" stroke="#000000" stroke-width="1" fill="none"></path></g></g><g transform="translate(29.90391662699284 126.88402043036541) rotate(0 11.5814208984375 9.222412109375)"><path d="M8.64494171360513 1.2602873274968953 C10.959881308821446 0.629662209808567, 13.797759851251074 0.6789682600508005, 16.07250780481767 1.160596941540641 C18.347255758384264 1.6422256230304815, 21.169965453860375 2.3603063459968974, 22.293429435004697 4.150059416435939 C23.41689341614902 5.93981248687498, 23.501500940781334 9.900258521326844, 22.813291691683595 11.899115364174891 C22.125082442585857 13.897972207022939, 19.931211966277292 15.040520939375558, 18.16417394041826 16.143200473524217 C16.397135914559225 17.245880007672877, 14.522907875758941 18.672449459084664, 12.2110635365294 18.515192569066855 C9.899219197299859 18.357935679049046, 6.392261009982386 16.643158257156962, 4.293107905041011 15.19965913341737 C2.193954800099636 13.756160009677776, 0.22111512099936104 11.623124704068813, -0.38385509311885 9.854197826629292 C-0.9888253072370611 8.085270949189772, -0.9593089186629546 6.0644644234352105, 0.6632866203317445 4.586097868780243 C2.2858821593264436 3.1077313141252754, 7.859165204563401 1.568946140251882, 9.351718140849345 0.9839984986994885 C10.844271077135287 0.3990508571470951, 9.601664506345966 1.1410130246731152, 9.618604238047405 1.0764120194658826 M5.403120168874148 1.0811601889228104 C7.227717906804155 0.3459496300055195, 11.036402763310289 0.4897666594717968, 13.791905042199735 0.9688912946824946 C16.54740732108918 1.4480159298931923, 20.330889772867092 2.5865540313571485, 21.93613384221083 3.955908000186997 C23.541377911554566 5.325261969016846, 23.980896236616672 7.349242988735617, 23.423369458262155 9.185015107661588 C22.865842679907637 11.02078722658756, 20.124394466661908 13.639828620654903, 18.59097317208373 14.970540713742825 C17.05755187750555 16.301252806830746, 16.394360991225753 16.665316178470604, 14.222841690793084 17.16928766618912 C12.051322390360415 17.673259153907637, 7.772126646659573 18.909399806906087, 5.56185736948772 17.994369640053925 C3.3515880923158674 17.079339473201763, 1.904735451094346 13.561123381401382, 0.9612260277619669 11.679106665076143 C0.01771660442958789 9.797089948750903, -0.9652723686717862 8.527926058497547, -0.09919917050655336 6.702269342102493 C0.7668740276586795 4.87661262570744, 5.166650146644862 1.9017514417995744, 6.157665216753364 0.7251663667058228 C7.148680286861866 -0.45141870838792886, 5.591192127942779 -0.44934782524823236, 5.84689125014446 -0.3572411084600162" stroke="#000000" stroke-width="1" fill="none"></path></g><g transform="translate(40.41465881449284 134.1586786334895) rotate(0 0.604248046875 0.79345703125)"><path d="M1.2199263465154604 0.38505195376893775 C1.4338131645923646 0.29510080800500305, 1.5415289806462298 0.6891555571507525, 1.4344500933408795 0.6820425009486875 C1.3273712060355292 0.6749294447466224, 0.463331885484294 0.405995893433308, 0.5774530226833582 0.3423736165565473 C0.6915741598824223 0.2787513396797866, 2.098829567234417 -0.02015293042800742, 2.1191769165352645 0.3003088396881234 C2.139524265836112 0.6207706098042542, 0.9524780574797551 2.003340311266304, 0.6995371184884419 2.2651442372533324 C0.44659617949712865 2.5269481632403608, 0.8572097399123866 2.1147273923029313, 0.6015312825873849 1.8711323956102948 C0.34585282526238315 1.627537398917658, -0.595864385424476 1.1393127810156751, -0.8345336254615683 0.8035742570975124 C-1.0732028654986605 0.4678357331793496, -1.0058853221308124 -0.16118408106260684, -0.830484157635169 -0.1432987478986822 C-0.6550829931395257 -0.12541341473475753, -0.12253461145511407 0.9128831553556155, 0.21787336151229186 0.9108862560810603 C0.5582813344796977 0.9088893568065052, 1.0276326408164371 -0.07584199446799254, 1.2119636801692668 -0.15528014354601316 C1.3962947195220965 -0.23471829262403376, 1.5358960902359993 0.5479574489882224, 1.3238595976292702 0.4342573616129366 M0.8779099101927832 -0.4566734617765078 C1.207130278847433 -0.08035561325900437, 1.7271499639942611 1.127268405670973, 1.819012423508679 1.3958014482051235 C1.910874883023097 1.664334490739274, 1.6604131898753438 1.3928837085596093, 1.4290846672792905 1.1545247934283958 C1.1977561446832372 0.9161658782971822, 0.6603948488194156 -0.32663531090230385, 0.4310412879323595 -0.03435204258215785 C0.20168772704530347 0.25793122573798816, 0.2855248201692727 2.6017698966347944, 0.05296330195695429 2.908224403349272 C-0.17959821625536415 3.2146789100637494, -1.1383508628509227 2.0438727074559857, -0.9643278213415512 1.8043749977047066 C-0.7903047798321797 1.5648772879534276, 0.9543684540336195 1.873324159562305, 1.0971015510131827 1.4712381448415979 C1.239834647992746 1.0691521301208908, -0.17644831013545303 -0.3329515084472096, -0.10792923946417143 -0.608141090619536 C-0.03941016879288983 -0.8833306727918624, 1.403241753800878 -0.17551191363137916, 1.5082159750408723 -0.17989934819236042 C1.6131901962808668 -0.18428678275334168, 0.8947503609601815 -0.7997612791310361, 0.5219160879757955 -0.6344656979854235 C0.14908181499140954 -0.4691701168398109, -0.6806478165908266 0.7805700822771521, -0.7287896628654433 0.8118741386813152" stroke="#000000" stroke-width="1" fill="none"></path></g><g transform="translate(72.20787170511784 136.8991571491145) rotate(0 0.6103515625 1.03759765625)"><path d="M0.9693963227051646 0.5554654985403311 C1.0496711338062823 0.31781844469990517, 1.576898724042066 -0.5516940423148923, 1.5934512277503121 -0.34678588307812874 C1.6100037314585582 -0.14187772384136524, 1.2649470511793919 1.5080459203438514, 1.0687113449546413 1.784914453960912 C0.8724756387298906 2.0617829875779727, 0.3224163414659465 1.2651400240777795, 0.4160369904018083 1.3144253186242358 C0.5096576393376702 1.3637106131706922, 1.5835586439368412 2.129788409348091, 1.6304352385698122 2.08062622123965 C1.6773118332027832 2.0314640331312086, 1.0433382094283357 1.243946382654432, 0.6972965581996338 1.0194521899735878 C0.35125490697093187 0.7949579972927437, -0.16804609539132925 0.7430587373590979, -0.4458146688023993 0.7336610651545855 C-0.7235832422134694 0.7242633929500731, -1.1784619868744577 0.9262529154286228, -0.9693148822667866 0.9630661567465134 C-0.7601677776591156 0.9998793980644041, 0.566945198010423 0.9850437344596112, 0.8090679588436271 0.9545405130619294 C1.0511907196768313 0.9240372916642476, 0.4338530933818054 1.0301963805148564, 0.48342168273243835 0.7800468283604225 C0.5329902720830714 0.5298972762059886, 1.233876370573185 -0.5255288782715908, 1.106479494947425 -0.5463567998646734 M0.015232095450017621 0.7319435469231728 C0.4783507812826009 0.7002751917687152, 1.7205916711392502 0.46839110964576186, 1.962162624626828 0.36030207330000497 C2.203733578114406 0.25221303695424807, 1.826891411331619 0.011474352182976252, 1.4646578163754844 0.08340932884863123 C1.1024242214193498 0.15534430551428619, -0.3406972822306522 0.686112117821154, -0.2112389451099802 0.7919119332939348 C-0.08178060798930822 0.8977117487667157, 2.060540920053292 0.3270740788570628, 2.2414078390995162 0.7182082216853165 C2.4222747581457407 1.1093423645135703, 1.1430466950351368 3.0017115215594505, 0.8739625691673666 3.138716790263457 C0.6048784432995964 3.2757220589674634, 0.9487305302610367 1.6976074066002154, 0.6269030838928948 1.5402398339093542 C0.305075637524753 1.382872261218493, -0.934362203583984 2.429887720447474, -1.0570021090414847 2.19451135411829 C-1.1796420144989854 1.959134987789106, -0.25801001023254033 0.7399152772284793, -0.10893634885210923 0.12798163593424994 C0.04013731252832184 -0.4839520053599794, -0.3924961114656348 -1.3754765128296336, -0.16256014075889824 -1.4770904936470861 C0.0673758299478383 -1.5787044744645387, 1.2502922694170888 -0.6640860214430316, 1.27067947538831 -0.481702248970465" stroke="#000000" stroke-width="1" fill="none"></path></g><g transform="translate(393.236046488937 37.18046987056732) rotate(0 100.5 131)"><path d="M0 0 C0 0, 0 0, 0 0 M0 0 C0 0, 0 0, 0 0 M-0.18220513012724615 6.356301914950006 C0.4812872229017704 4.54263319385444, 2.467198922755628 2.583960869739205, 5.130463950666136 -0.03528295570637646 M-0.2714208427490542 6.224637947653525 C1.326268763193689 4.1174588238702245, 3.5138476558235885 2.1103932479515204, 5.0700798034244245 0.36154553963218267 M0.45493664677251444 12.427054949521601 C1.60269782046024 7.79688520669593, 5.750600424777632 7.149245264217333, 10.393261563730372 -1.5724462737247586 M-0.10634735663424866 11.486926501661122 C4.756062612871705 7.81385906848251, 8.803834683434625 1.725737766677058, 9.91875674943341 -0.7943372023210167 M-1.3157113688579063 17.456830740813785 C3.616467892199533 11.465299426528134, 8.475978766222724 6.311970615849376, 15.015913849234064 0.21538171422900465 M0.4702081065112491 17.575826285314434 C4.880344018139734 13.959622013405436, 8.093257191702913 9.68526855464585, 16.17762889759936 -0.6375186446192691 M0.15564701540388803 23.197437748028992 C7.16720316777222 13.87761878179513, 17.2837516162644 4.5471523475158975, 22.92714880807128 -1.802663796192455 M0.44373463952907066 23.47514189471966 C8.557543795772284 15.484759053613661, 16.16819853441156 6.144126996185324, 22.021897292973364 0.8014509122982147 M-1.1857175239781483 29.369895525042168 C3.3369202020680193 22.532686703498104, 11.128950685075248 19.03659752467378, 26.88375410498342 -0.3690221110346972 M-0.9543349276716455 30.439201836239747 C6.580446261858488 25.051540814876073, 11.233168255254753 17.58927620293236, 27.16757373851946 -0.11149169281006444 M-1.1025081650447568 37.14899888616179 C8.274439755744382 27.657780753747776, 15.776317406600203 17.408441773902467, 29.917757465920246 0.7664701287879829 M0.2864590686652342 35.9863373011363 C10.837478425015494 22.30419963757218, 24.218578532849712 9.70825532264395, 31.789965989484287 0.1441110885947232 M0.7343687891633266 42.83649577069633 C9.899751197746951 31.41463356953644, 17.597259399199366 18.13054354342726, 37.7162473758695 1.8122677282523831 M-0.4161971452041513 41.86827791817092 C11.518413847479037 28.42805001286549, 23.315416888613104 14.933309177837248, 36.75362224765246 0.9347035634425005 M0.46512682363383107 49.437715983622596 C11.512173410373272 36.327979166545134, 20.475557324408058 21.53679594713053, 43.55734531078093 0.2099402964442021 M-0.5493178674951977 49.17803049427353 C8.03439047107096 37.47490896701272, 18.60512087746557 26.43179137820581, 43.5170533932706 -0.7212098447279089 M-1.6789875856834797 52.691104134026276 C18.736979349436453 34.6022257706519, 37.70003804497618 10.957705620694092, 48.749233505642295 1.9843488883402394 M0.7440452820387335 54.91066195298295 C14.734337222546406 38.11895313290408, 28.89181739455962 20.833951820430805, 46.54051075312334 0.7283620460134195 M-0.9366672038008659 60.41839627688418 C19.19613591992307 38.24211635245628, 38.869391132505406 19.03025225990922, 51.566127186403335 -0.9815306369737975 M-0.9274188698177426 60.844725976229114 C11.043374239949381 48.57555068122778, 22.36187141933224 37.51441326741006, 53.190708332457305 -0.8250294657946817 M0.26336916624092765 66.55415285150478 C19.79560333259195 45.80492618444198, 38.574956007868735 20.830024829828723, 59.68730233805181 0.40356902547888396 M0.04538215319150396 68.10304594277362 C16.44299832608016 50.00741715838255, 31.777034303664426 30.580868628746963, 58.14860058305712 -0.26884632322229507 M0.02169959640115593 74.72238742219655 C14.934415301623428 55.24075852382441, 27.64936025621515 42.131852349662985, 63.13306793653746 1.7140299847839842 M0.9600173898226032 72.26059366887806 C22.211957580640778 48.95414327397725, 41.529668430617356 25.264831656553618, 63.3141046351694 0.5365096472694049 M-1.3124780533324412 79.81319541893629 C22.830470214637188 53.394290950322926, 45.997626711711774 24.210356776653008, 70.70379371684804 0.35752579591829914 M-0.50939464563983 79.45236814897237 C27.362829816093853 47.68079957831145, 54.87843019773262 15.212161703693042, 68.21387806557878 -0.3608766223896609 M1.1385670679898965 84.0122870758097 C23.22038478367345 61.13101041129724, 46.22795562518103 35.67659191005037, 74.9158824049333 0.8498448179675506 M-0.06352276044916039 85.93417849409536 C16.96283139178692 65.04587237880315, 33.10647829710556 45.34983921165601, 73.90604112953189 -1.1983600836606456 M-0.7798734296440912 90.15116407279358 C19.39699176449269 66.68182311826577, 41.679551823937395 42.60135815827307, 80.44079748578099 -1.8349331440914938 M0.6299546846792268 91.96407057367698 C19.446587610355618 70.00871412109984, 38.306772386046205 47.3240459879767, 79.38795452881334 0.3826910703863433 M-1.9750339742751493 97.7366524741964 C22.90225085418813 69.5986128479571, 46.5702670725035 40.01496727042077, 85.04103543534086 -0.9896134811731088 M0.1850129785014616 97.3631099539788 C21.42784418948461 72.07362620112755, 44.18188158763164 45.942202691866015, 85.50094164366976 -0.8570312367098438 M1.6126478810559775 104.52753146932665 C19.62388451804346 84.21108735427988, 36.22120571624192 62.41982357171792, 92.00915348860065 1.1762898616994875 M0.18535397227367412 103.62326063876245 C21.676444694388163 78.48724155831636, 42.31015269450104 54.068149917743526, 89.33806630088577 -0.8733483230193002 M0.7288543713370288 110.1111621131611 C35.34294115326199 68.54688188065248, 71.27168153637365 28.92067442494502, 95.10374187151015 -1.188622256387987 M0.8724789927804792 109.01526380995782 C38.03531451476771 68.13511515866054, 76.26453312427554 23.181391793034777, 96.14885500570804 -0.5325213900031827 M1.0853007225177649 113.9330202647855 C35.41705497480004 73.73724911861581, 69.11167240063989 34.060817031153576, 98.98845156905705 1.772542469541257 M0.3943520452685121 115.14942076610377 C37.40018410785093 71.46111932998679, 76.16428820244224 28.517591611342795, 99.74707470992112 -0.7298248807315773 M-0.2012370804140744 122.6468732291766 C29.367759248371964 85.3496416971481, 59.98591850925234 51.9670841219053, 108.16796655719114 0.8997911485729233 M-0.7868224184776125 121.85701956413021 C35.6166066466672 79.61042869715959, 70.80801654361456 38.45212648768802, 106.41545504377169 -0.583473121665655 M1.670990909500766 128.1443126956429 C34.94592652471911 88.400959595525, 71.14151876105196 46.98258102794492, 111.42703157090016 -0.6335776643161992 M-0.6459362972017644 127.75111795779873 C38.31155723150442 84.83260823972608, 75.07626316331843 41.11803509116967, 111.31346608404435 -0.553193680875502 M-1.0919684857784517 135.13138347849286 C23.21152947225709 104.97830140663986, 47.9740661489498 79.93244936125822, 118.11036530714335 -1.2914410298176122 M0.09309507285219354 133.33442213837094 C26.359297567908804 104.38689655014628, 52.71741426335307 75.04830607942256, 115.72598155699524 0.12055557040050502 M0.8395513437359909 138.70521225770332 C47.81918810533441 87.3981420197519, 95.16530805911877 33.90527621012863, 121.84198333787998 -1.5982228836228671 M0.6454058309688548 141.1071654752768 C46.88555959377799 87.48750014275491, 91.84139718846406 34.17526004454143, 122.75135175138047 0.5244651984239397 M0.19874999899387547 144.38354051735993 C37.965965818247525 107.09465247700356, 72.29567510508502 67.05188145628883, 126.24452102309778 1.4377347042448534 M0.41384279489487596 145.12789145455505 C34.30632364130425 104.95276245510445, 69.57438394266077 64.83749074532722, 125.98947643148466 0.1802529476247443 M-0.39077921328062787 153.34560910167025 C36.35484992229075 113.6533373319792, 69.86441561452799 70.58757964635326, 131.35650612658944 -1.4816989916968528 M0.35823417679345343 152.84347176765093 C29.011111789473944 121.31632713665758, 55.727317080784275 90.71405279917047, 131.86877590913872 0.5373040452239436 M1.4082998625281402 158.98331175427123 C38.871678415272626 110.49368509269861, 80.69468411225898 66.05787370708636, 139.1687662344701 0.5504877545179581 M-0.5253463106990822 158.89390390300736 C51.75494586749632 97.94068656903413, 105.03784507811972 36.31882062698583, 136.76426592630673 1.0911244001697176 M-0.9089219734314751 163.62993245398673 C49.93994519060204 110.46943392505332, 99.0296084305735 53.96067366219226, 143.03457557038948 -0.24763682223326966 M0.8104981465488255 164.72796082307653 C47.974534241894766 111.71019708588055, 93.45295621089215 58.570016492565614, 144.04640885962016 0.011500431997437097 M1.3390595555824019 170.44294897038702 C58.49871467427955 105.65668035449744, 116.36339856228346 37.05060421150095, 146.71263065894107 0.8232826903931463 M0.33315609013806163 170.38653890664196 C51.80081251331027 114.23466624208386, 100.28948719171088 56.238995536429734, 148.3432214501917 -0.18111765033361488 M1.32269507508621 177.7741688443388 C35.39958659673515 134.37502124239012, 71.81946200177401 93.04730791208641, 153.25080322349282 -1.6519493739626183 M0.8847896487253238 176.18271217800242 C45.81889986138243 124.10079863969223, 92.347006720091 71.33441025953279, 154.5345168011897 0.28302123265108803 M0.7981275211967971 183.11007973603742 C54.43198289879812 118.9302470060372, 110.83486477359679 55.5510719086954, 159.71803554801318 -0.5908916123318384 M-0.3141941407760314 182.54686744562895 C54.12607964382289 117.08967546880999, 110.41048797641608 52.4608827714876, 159.1851593990393 0.9851108695983716 M0.5163764042900449 190.6032682177526 C40.64516131287732 144.27820715907797, 81.51167319389276 96.11144871195313, 164.0921583729636 -1.7171919720426538 M0.2286018566119431 189.73903404810025 C43.871242238509744 134.72860614066198, 89.48163839596663 82.64927062317012, 164.11936522426666 -0.5124647218365405 M-0.15438181909548476 194.41675388047048 C55.13960437557575 130.47675935809207, 110.79892508458721 67.80488923136996, 169.5445011060321 -1.2543743822214348 M0.05453057133889769 194.2035741385473 C62.143188238327156 120.981723698006, 125.68873396862007 48.10392958526737, 169.88528544372352 0.3837807199510429 M0.9730066987169916 200.1835058940764 C48.219773949669055 145.81312658855393, 96.2702478924249 89.51188772942447, 174.59902931229448 -0.8897278332211367 M-0.7452033675624142 202.06985092086452 C45.73025365103443 145.80355043036207, 93.86948934083983 91.7768637814447, 174.3056859691919 0.1262148626642421 M-1.096131418761255 207.5817222079342 C54.98818063446472 141.28393562080475, 112.24571941986449 80.80637260134112, 180.6449853623436 0.9923969271599036 M-0.2259585112368917 206.84469251647621 C66.59640361617306 130.41440518789062, 131.975535439547 53.186032279487335, 180.59228054261843 -0.43271682679024925 M1.1904362328640783 213.03466650194463 C61.42912882563675 143.62519646189446, 124.29355219158754 70.38886349880154, 185.81772979539826 1.2239541666858766 M0.728479294225891 212.9027102980103 C50.185494265587685 157.2232806350087, 100.67388961690801 100.32639419645906, 186.41484590156912 -0.018326460489561075 M-0.4606824954847063 220.92549426462782 C45.866402986663196 169.34332865377658, 90.81397835035132 115.84524507542388, 192.00112479509838 0.5262255297280087 M-0.2498813796626929 219.6914361090399 C40.447051816387024 172.602335747485, 82.41987533588745 123.81311839142741, 190.3237333929768 -0.3003254812229581 M1.513940749162973 226.82533855908204 C43.8545798204529 175.35219013098427, 89.76941227974287 125.16557686104375, 196.0563071412691 -1.6446860061594901 M0.6359692828704421 225.57433875231607 C65.42526100293476 151.8213557661834, 131.0861764134925 77.36709570426446, 196.44355151151055 -0.49475568023836547 M-0.477095341729313 233.02387898507774 C64.90340606238559 158.55648220994988, 128.34033200748598 85.78431846361151, 202.34616813494424 1.1847421273485066 M0.48375142251066783 232.24280201320184 C47.42485672368585 176.53320257494858, 95.82826450788792 120.0451904121891, 200.77775159775808 -0.5810475861375349 M-0.9943259564966489 236.6885410566316 C54.963044864642775 175.06416620004626, 107.8679191642361 112.70775377879377, 199.67309162630195 6.8205669419332615 M0.8445053878234974 237.82144513441688 C59.33163276752621 167.34746434378036, 119.59450272388631 97.19731153325323, 200.7063729233553 6.042985004916956 M-0.36241883396855684 242.59748849771387 C59.34891750475216 176.9516900863378, 116.10816970166833 108.27385406525278, 201.10272726320977 11.38951322529044 M0.650995093582381 243.49078210904113 C52.19897261883115 180.70559835596174, 106.18251524872201 118.41302727842152, 201.90164492451981 12.229126321809634 M-0.20260391677201012 251.65804837977186 C72.47521992714006 162.8490928687969, 148.35197813402303 76.04197016289935, 201.38617394029245 18.985173772633143 M-0.10368177721853251 249.5618787656898 C57.58213216024743 183.05418219596825, 114.65958229115377 118.36375672611194, 201.8248919073329 18.048573581985384 M1.5985855524299228 255.44883973259044 C73.46203087637056 173.4447601658227, 148.88622554315432 87.82804870362146, 200.3873526265165 24.85040278066904 M0.2833789821396476 255.44982205071187 C73.11620087985351 171.60183663960973, 145.2886518603016 89.41952565711397, 200.83389796752917 24.456612402817864 M0.004756151404395462 261.0761227162209 C69.21440782022655 182.6121822700393, 138.0815429008674 102.77117646762514, 202.3228654571963 30.139312030227785 M-0.594493036769683 261.83443076527215 C71.82314785691821 177.9193747315334, 143.70591232363216 95.13490672570104, 201.4069758042042 30.39289484841186 M5.468438062447662 260.55972634356465 C60.23326232479814 197.03688988959405, 117.14525311710796 133.00496492910133, 202.03289307318568 37.92895294030465 M6.1252560860325005 261.370638807272 C62.748671263261656 196.78786453694116, 119.99187830038215 129.7463161240194, 200.87018187150508 36.3533806169481 M11.163651352945214 263.33030958990315 C50.021673971364244 217.5490499538933, 89.01688362417987 169.6143883889917, 202.28007643134416 43.03009411423338 M9.866498382133903 262.80841075710237 C64.12508453347058 199.7513681033668, 120.25602843489166 135.56581466896898, 201.53907538973507 42.6793746030814 M15.022219008898755 260.96354258175205 C65.63737595276308 206.99509319744237, 111.29895202492672 153.24323145996183, 202.6256302043425 49.20485840486611 M16.021783440253373 261.44617170057495 C69.02497107838859 200.74281057249098, 122.76384385374088 140.01213260484067, 201.58051162257104 49.59805931375891 M21.10587422560956 262.79206286947874 C70.58034663577781 205.71330695448444, 119.4083093873383 149.36506840214105, 202.14518836387612 56.12286114173556 M21.184684817437528 261.5672209973646 C57.44451794444528 220.70632347484772, 93.8693589341754 178.62650494288636, 200.75061396469076 55.42652046429514 M28.01558201308146 260.6361027833749 C69.88387243056671 211.76423059682688, 111.54784595998282 165.15275697000936, 200.1796171869321 60.91964798213051 M27.033896620112813 262.1329163937888 C71.2417814655931 212.33017341497944, 116.1892884936223 161.21759388132682, 202.07787153250305 60.331754237018544 M32.3099195289523 261.9247370236383 C77.2975794363147 210.8017789766568, 123.68549783195684 157.76406568828034, 202.17072090048418 67.72042634128772 M31.02055115499849 262.4769658993136 C83.82821511546422 204.233452184732, 134.58941148504823 145.48729364222848, 201.86621778712168 67.82672201981299 M38.46400062494698 262.95026464145064 C78.01233424779518 217.36473145490936, 116.95108984432363 172.29016420631174, 201.81155292559322 72.40129788542795 M37.732181630713384 261.63589799157637 C95.09009632356474 195.2467514990455, 154.10943277240366 127.55235515854243, 200.94832124156002 72.91116191873384 M43.845672971203406 263.5991444245096 C74.48840752910911 226.55914253307412, 104.69944831717986 189.94443863970218, 202.54686040173303 79.23431771728794 M42.94445419772683 262.831447536293 C100.76182564893593 195.6058998966943, 157.78002342234785 130.95553110859095, 200.9805770006819 79.96963197791494 M48.38364245651552 262.48107918311314 C82.5539317822557 224.11545833511798, 112.83275370218968 190.63974513732927, 199.3216725913084 85.35004779769854 M48.18504851476952 261.48805956197344 C86.73855374138101 215.53146164756473, 127.67653125783333 169.37959756474152, 201.43615103396976 86.08109110276398 M52.47674785231409 262.51644061511024 C96.74101404570905 208.4394555055099, 141.8424800694458 159.0844144209111, 201.20817672226133 90.5845901330663 M52.8822936757251 262.74558808796587 C87.77083136079918 224.82874770095182, 122.4948969229201 184.8505428024052, 202.13350737063018 92.1567095456078 M57.00140012879043 262.6771140634737 C109.47640020764797 204.648768745605, 160.35726810516218 143.94508915333546, 202.4243837450313 99.35856774951219 M59.35768417657674 261.0262919564589 C101.30931757300999 215.43886213338965, 141.46563948988143 169.9392335550259, 201.88398501508829 98.4222330704663 M64.69063022223547 263.3140115884577 C103.24354877546011 218.83192125956217, 142.15179043863284 173.76370312111717, 201.5415940667078 102.59288410195285 M62.86552854409582 261.23812210899524 C109.11941691525362 207.40551978794244, 155.68629399519833 154.84366028445262, 201.07344708722536 103.17074150489837 M68.61675532716157 261.95189471479404 C103.00581219123639 225.22819111855537, 134.98138130049952 184.59525497746287, 199.70425864540155 111.0401901150419 M68.10416229399671 262.26206921423574 C99.35054412109113 225.10711844129744, 130.85224226449378 189.72267536684157, 200.5302105620777 110.5531335899048 M74.59312190248359 262.16191174261996 C112.7990733961206 218.9540752262072, 145.23273930591202 179.11519614145328, 199.74570254267638 116.02308415521291 M73.79633522445995 262.47217686367014 C121.07300645997296 206.50190911369924, 168.81866425852522 151.86959195793273, 200.52188741726314 117.24316533275304 M79.44051241668089 262.6887769995551 C114.72903629247364 218.10753116890325, 152.40706276610103 177.26078914625015, 200.71857345440398 123.27490446504042 M79.43698771370723 262.5478397578295 C122.66421287943191 210.91552979133607, 167.20881014281144 160.2372380182827, 201.23676889260273 121.08690175667242 M86.28546701052788 262.2512330455301 C120.55073127791437 221.2666469728284, 160.97056062297207 178.15872123234755, 200.03576489951902 126.60328990013465 M84.52200737556073 262.29119354631433 C109.82420227540804 234.24807671297123, 134.82770971574672 204.1511043586701, 200.07526300795817 129.2164823662223 M89.16663666901229 263.33117218552184 C121.97860858947303 226.9645450411672, 151.47496845286278 190.9506046173783, 202.62383585397126 133.1763725695813 M89.17766116180508 261.49446378605467 C117.2648392039982 231.18797259557874, 143.89925081507778 199.69145708523016, 201.2341618935761 134.22463033494148 M93.96370536808385 261.39360152861605 C118.75549929484693 232.84994373037333, 142.4357550533798 209.32336158571857, 201.18940605274838 138.99557602835716 M95.99917870268686 261.7269361505894 C116.04467412584911 237.0780427343131, 139.37660765401498 212.27171243737024, 202.0369981262411 141.1125555947599 M98.83641784273037 264.2368196297894 C138.9572190504822 220.0690098178317, 179.2290318679505 174.30749678669895, 200.49906919280969 146.92514821577072 M100.45853007499078 263.21638307184827 C126.48960722851388 233.42597571160232, 152.2075519569527 203.96374335772987, 200.1827079322093 147.85073777443915 M107.16055181890158 261.2672398481277 C135.25251081514415 226.58098177850465, 166.4663949269291 192.3922270908858, 201.09871584611446 154.26879019613048 M106.80914803396342 262.65513709837023 C130.69374794671012 233.615763573974, 155.08541189040392 206.44740171377046, 201.4337041002369 152.4868049402409 M111.96694578158521 262.84956698860776 C146.33635342197627 222.50872620968474, 181.44177824746185 180.30519538969344, 201.0328563726504 158.34628489941318 M110.49370578138941 262.08151753708523 C139.31253303553052 227.5233224418618, 169.32635272140982 193.86053216022745, 200.30394889460845 159.25341233659495 M116.87747120673103 261.58162066031514 C144.621600807616 228.7898277702692, 173.17115346888693 193.76584507206923, 202.12453412336728 164.52303005970455 M116.04883919751538 262.68590381153194 C148.0709862290923 228.2840474510635, 179.10358458207838 192.0468924175536, 202.30761725807062 164.1290253245402 M120.54406032932677 263.64451191822684 C150.28638516548546 234.04367267125332, 175.5955219923826 201.98630973124773, 200.4143532082528 171.56021485698142 M121.51292460912593 261.6921621036405 C152.3526800443003 226.58557262006263, 182.57491456134065 192.1693888925305, 201.36687457990797 170.7193460235066 M125.58467837532218 262.0774666214284 C149.25476700521145 235.66710961153765, 172.92034436789527 206.22608172306815, 200.44039169926629 175.6443528555522 M128.33080102146772 262.16371871194957 C149.52648348164746 237.91523277549624, 170.53593274297003 212.43901399089268, 200.0605398988767 177.81809624975568 M131.022351329705 264.1280020748967 C159.00560128555725 234.2946834188808, 180.02046656839363 203.9577152782422, 200.95752454336693 183.9639107447254 M131.7615478863253 261.8849866933891 C153.8734210129267 236.89786919687614, 175.82152551390624 212.342993360089, 202.31215881623288 183.5148962570491 M137.22113816842506 260.52675038771747 C158.18829851657395 241.83102371225172, 175.11902938102926 220.6835711052592, 202.65674647554252 190.28593707947786 M138.78320733394543 261.16743922149806 C155.75063090734676 242.56315294890496, 171.94031273203552 223.99446328802594, 201.07807640876118 190.30314347731675 M142.32515862647 260.8376351148674 C161.50210737318477 243.14012092302485, 179.34725886826334 221.72973183738787, 200.4450852217428 196.9855952188952 M142.5005619411126 261.73103622820616 C166.68004101264728 234.88840131112164, 189.43802671921713 209.4349623597823, 201.5961004317082 195.64079545909746 M147.19456542978963 262.73269461543225 C171.65780369264746 238.43219323896804, 192.5940082831819 215.87440528244298, 199.88462926695547 202.39633996795428 M148.04985696307352 262.51029776205235 C166.06925575703625 242.9586003205446, 183.35812302868942 224.3189192486356, 201.79327908685855 200.83179650932115 M151.84457206337171 263.3422586943889 C168.3744702979684 243.04905367113702, 184.88234080808036 224.69637821509724, 201.47244105813985 206.83945051596353 M153.0065781016128 262.53573062996657 C163.15428097738894 250.41862300085847, 174.28611289032156 237.72319624718813, 201.5345642254684 207.58686063174943 M160.38142500316596 260.52977196082287 C176.2232745639646 245.49648143400407, 191.3018634108863 227.94188433114098, 200.35987991725517 212.2006591772315 M159.29017373697704 262.73990175548755 C173.2477764405134 245.74080881062233, 186.2325082701079 231.79706431681177, 202.31088426129384 213.13135026764394 M165.44143148416015 260.2419704697111 C173.08695773412683 251.20366904851483, 184.15903199289113 238.55667378288683, 200.07192495428916 219.5067801317349 M163.5718326959509 262.83886482054527 C174.08250067003456 251.37380959244643, 182.70577576314994 241.2821602565929, 201.9272170836195 220.31315503643452 M169.12693173230397 261.7837050801392 C176.07227844500812 254.07947258504953, 184.36447526872715 243.43308181111686, 202.78708827019153 224.95524236355948 M169.17920648378092 261.13823362367856 C180.104856748651 249.51053765441185, 189.8733114287197 237.41083580386538, 200.75125326019196 225.16347467416006 M175.44532673258524 261.1681180970841 C184.8454738777579 251.23098918044104, 193.46233629769517 244.03701952477394, 199.77644272495013 233.26426630268205 M174.5041870522518 261.4146087218174 C179.9392265222545 256.79163788732853, 185.44997715476055 250.14374542115164, 201.12117380529594 232.77824567525047 M178.58899143196322 261.14617620985416 C184.69934751718247 254.98626188829587, 189.82159914514622 252.64107390809332, 201.68353514052416 237.70239676341103 M180.2515700026197 261.47636036872325 C185.56671020055228 256.104110560358, 192.1103924538091 249.73027244216217, 201.59431338268752 238.87892423096733 M186.65459765239711 262.7832992327579 C190.82837668183026 255.70185346395465, 195.33239111299886 252.4372371267095, 200.24370921387288 245.66513168505494 M185.12712749864068 262.2715072556578 C190.5712767776663 257.22789432660136, 195.2645561672718 250.66297177227688, 201.63523321862283 243.92036497007226 M191.20913324991753 262.9104815800702 C193.8982096371632 259.19893811548803, 196.11667174292265 256.0257959464754, 200.22131528357463 250.26786054481215 M190.53972859049728 262.07816670509334 C194.24618802526368 258.8656879367883, 196.76638634539455 255.83684316694752, 201.2616077514966 250.22557960633583 M195.4779292375035 262.32085480059317 C198.2083096432581 259.5928762118729, 199.33654413008298 257.745539948632, 201.9325546476426 256.1032437763723 M196.4553017478622 261.86930232497684 C197.5567824797669 260.7492354370803, 198.46099064703924 259.1553639548221, 201.0940066024097 256.1505523394408" stroke="#fd7e14" stroke-width="0.5" fill="none"></path><path d="M1.5424715336848196 1.3494376999431668 C47.53479695918017 1.032328151227166, 94.82797739902489 -1.013348230798171, 200.74545464883738 1.6838500286718425 M0.06417153007974921 0.2607028795749157 C44.816605408574965 -1.9316456707513128, 90.67680523443651 -2.33326223357623, 201.08613661724377 0.5349293740103214 M201.66057639234916 -0.9186721141788148 C199.17841384677808 97.95658380366922, 200.08361444429465 193.0954145384461, 201.1165688426381 261.48332938321863 M201.14961267392903 -0.31595517186114674 C201.71822429032665 90.77830242889799, 203.1625561955126 181.54423527816903, 201.19485021823436 262.57276999103584 M202.38008664733647 261.70060157908324 C133.94175761041993 259.9320825786514, 65.6843603171496 261.646131471565, -0.6212788140856802 261.33793007012883 M201.34600906813003 262.87626530416196 C147.92943711611966 260.83415437640843, 93.79534149995222 261.1313881512117, -0.035231598899075386 262.7293263427319 M-1.571699024015186 262.59965816295744 C-1.0733788724237514 163.18097443671115, -0.007805801590235251 68.04713304619251, 0.9700253727871202 1.228827407078848 M0.43206833358710295 262.5342985830472 C0.8566193023792641 192.72975549123572, 1.3330867842245833 121.8840319584586, -0.5669598179106307 -0.20790076405106672" stroke="#000000" stroke-width="1" fill="none"></path></g><g transform="translate(449.236046488937 63.18046987056732) rotate(0 47.5 12.5)"><text x="0" y="18" font-family="Virgil, Segoe UI Emoji" font-size="20px" fill="#000000" text-anchor="start" style="white-space: pre;" direction="ltr">Chat Bot</text></g><g><g transform="translate(51.236046488937006 176.18046987056732) rotate(0 -1.4676834040880067 359.8367641724647)"><path d="M-1.0669996429234743 -1.1397635590285062 C-1.559057265693938 119.17347724288703, -2.1548151486863465 600.6517055362464, -2.599460280612084 720.8132919039579 M0.5736868152022363 0.8762566271424292 C-0.10086088697115114 120.90087457053365, -3.1804046638806436 598.8502175923438, -3.5090536233782497 718.8330432383717" stroke="#000000" stroke-width="1" fill="none"></path></g><g transform="translate(51.236046488937006 176.18046987056732) rotate(0 -1.4676834040880067 359.8367641724647)"><path d="M-15.532331064837688 690.7148713403786 C-10.096990276973669 698.2150742298207, -8.401409548811312 708.3060793946191, -4.543081678524587 717.2647932695598 M-13.687840548838192 690.1165691520492 C-11.458208243876518 698.3676145642656, -8.132753473286154 703.89679093382, -2.509153087697896 719.0318010647223" stroke="#000000" stroke-width="1" fill="none"></path></g><g transform="translate(51.236046488937006 176.18046987056732) rotate(0 -1.4676834040880067 359.8367641724647)"><path d="M4.988635872084661 690.8144623017071 C3.665108840870486 698.0993936826493, -1.3990630766535554 708.1575928755656, -4.543081678524587 717.2647932695598 M6.833126388084157 690.2161601133777 C3.927197706704744 698.3805939810077, 2.1165053400253155 703.8848439505294, -2.509153087697896 719.0318010647223" stroke="#000000" stroke-width="1" fill="none"></path></g></g><g><g transform="translate(494.236046488937 301.1694494485855) rotate(0 0.7524828124418264 304.8578186744453)"><path d="M0.9147926878184081 0.35783368237316604 C1.2390759641925417 101.63808515903852, 1.4389268865187583 507.4508272512507, 1.5690455053001187 608.6088920671494 M-0.06407988041639334 -0.4999075797200203 C0.1517365060994946 100.91510354955994, 0.5272730272759615 508.79738774220164, 0.7205830051004432 610.2155449286105" stroke="#000000" stroke-width="1" fill="none"></path></g><g transform="translate(494.236046488937 301.1694494485855) rotate(0 0.7524828124418264 304.8578186744453)"><path d="M-8.981923283943814 582.3548691137458 C-6.374378136382829 590.055756868787, -5.779085379007687 595.6928543521592, 1.559545438960149 611.7711897704752 M-10.132489218311292 581.3866512612204 C-6.842312295959838 590.9948852421729, -3.6809608225152166 600.5065969521827, 0.5969203107431076 610.8936256056653" stroke="#000000" stroke-width="1" fill="none"></path></g><g transform="translate(494.236046488937 301.1694494485855) rotate(0 0.7524828124418264 304.8578186744453)"><path d="M11.53926637569845 582.3269883169291 C8.634786035945654 590.1918038115725, 3.717837837817263 595.8363904158308, 1.559545438960149 611.7711897704752 M10.388700441330972 581.3587704644037 C6.976487480950052 591.0087152399722, 3.4354525478301605 600.5295330435704, 0.5969203107431076 610.8936256056653" stroke="#000000" stroke-width="1" fill="none"></path></g></g><g transform="translate(914.7360464889371 34.18046987056732) rotate(0 100.5 131)"><path d="M0 0 C0 0, 0 0, 0 0 M0 0 C0 0, 0 0, 0 0 M-0.6424423947604248 6.24330080678045 C1.5632864499229155 5.4235418878461354, 1.5977161211382431 4.28869619034323, 5.1460216689431135 0.5513359922764116 M0.016268819230621123 6.092311368559591 C1.6691992832131595 4.3156064894962345, 3.1972752240868996 2.0192719660406806, 4.744225001292771 0.6243918426183277 M1.5857347005139695 11.579907103299677 C1.3474299944168222 9.772700016014888, 3.6571332487926074 6.8737950411281155, 11.769106614542139 -0.9559985388919948 M-0.6373904569913043 12.70542916622716 C3.5323378925334525 6.8737280482453995, 7.593961647429698 2.045505205712574, 9.844364955228698 0.23936474203017966 M-1.7379033463588218 17.827884794120365 C3.1958468268383404 10.514862118946203, 10.26469876774575 7.8211656338638065, 17.52075815713354 -0.4450316702085564 M-0.4870852251118283 18.069415507745617 C3.6573397214308985 12.434115969700443, 9.655043294226784 7.163981298513171, 15.737621866635461 -0.21691030292539093 M1.8456414697877381 24.919745310857056 C7.018869627828782 18.122182631090485, 10.813283077721849 8.214493978549447, 20.29381333691802 0.46080816482896836 M-0.04758769905201454 24.854536247155725 C9.314742545403849 14.823702350391628, 16.972384030543875 5.131163358452362, 21.52363029802021 -1.0446624714717743 M0.5369955888529674 30.454564995829216 C6.225626249375274 22.23069782857941, 10.633357861523885 15.154341430137933, 25.786677331339927 -1.3619626561167895 M-0.36280394899198853 30.231073681961945 C8.289898779654832 21.301826922326207, 16.460309146065352 11.857683013070602, 26.4447259787958 -0.6957013137626706 M-1.8288879172038754 38.071982413345324 C8.054012866405348 27.61715609277219, 14.592887829360256 18.136558795076745, 31.25403411634902 0.17666297603987502 M0.6226475638243834 36.141187128425884 C7.231191611241113 26.847706530460318, 14.507653392771068 18.451573356191034, 32.408638539208866 0.08675884374074982 M0.29974089857647357 42.91358925271385 C9.689370822018402 33.692694773536886, 17.003597196553855 23.331313169387926, 38.23062842693304 -0.5000163837242404 M0.5588749406532401 41.57293434030913 C12.90261930521365 28.620414983005226, 23.29639569647592 16.066985772558393, 36.19983805604403 1.21799043296841 M-2.0892482288182563 47.1995590689116 C12.011287445849549 31.65174853266638, 27.09699702866909 17.539801458999108, 41.467237989041735 0.6394126236765629 M0.3787857582791858 49.668150249541625 C15.400135484315241 31.091204237986744, 31.380521000201202 12.521688213938432, 43.384257284547914 -0.9221739975408667 M-0.2919525734383015 54.25818022102426 C14.747288920696498 38.04942155062443, 30.994172417465425 21.84018162014749, 49.36970128766286 0.5846548032190846 M-0.4532497280511407 54.28322990466218 C12.567261071747984 39.69538811798971, 27.24126967867833 24.788314377912826, 46.71706942650515 -0.6079151408571555 M0.550591349704078 59.87603251402865 C21.3703440010752 37.72327254967239, 41.08020311065807 13.449675318356604, 52.93488979874617 -1.441470236010968 M0.46637918344687534 60.87055511260073 C17.594713153451558 40.741621411699114, 33.927304965199724 21.646693123273565, 54.04741036216235 -0.9613535734416239 M1.7323209875681371 66.32752013723324 C16.936045312302888 46.35638406029323, 34.25568268224625 26.12646910114701, 58.18973575727941 -0.6328514390368021 M-0.27081315597063593 67.03927737711886 C12.468708353719089 53.36245730210351, 25.20771473072334 38.492531886505475, 58.72615641830416 0.9288768866356456 M-1.298529337886869 73.95150040494649 C23.312973735901053 45.8191348872371, 47.216348526726144 20.733445645325794, 63.127204389212324 -1.3252629467727175 M-0.1973358325475445 73.66319663947819 C15.794781150636565 55.525492875617786, 30.617167625151065 37.673311344364244, 63.51064660017718 -0.18629746208652165 M-1.2201055166732004 78.72791249714521 C18.370588209687895 58.837700314748844, 39.574002669947 34.50951147716574, 70.14532167953267 -1.6461874542419181 M-0.28164845699923546 78.98864001910863 C24.06327255090856 51.63913667488772, 46.280993789921666 25.06652588322561, 68.97246035956606 -0.8349635626782046 M-0.5570204478410972 84.3073103979151 C19.19634946064547 66.2960415412418, 33.880394488761816 44.12067510873922, 74.9831466041902 -0.23999285235868228 M-0.6794979615790737 84.195244752049 C18.55799060551181 64.86437597912268, 37.5080518662385 42.90509816078726, 75.4021398267174 -1.0181482416005565 M-1.2413262714028193 91.36103953723297 C28.981158259801767 57.60549939818834, 57.596209555601064 24.392000164105852, 79.15979889817265 -0.9177555861462423 M0.6738591679975556 91.27738483272925 C25.041543746091445 65.33155390205152, 48.204153948372266 37.73595180599645, 79.21696757841585 0.6716084330763152 M1.6673988346008883 97.61076972940728 C25.107790899177278 69.11110738870607, 52.32883799563134 36.308708915288975, 86.91043128742979 0.6175627034811271 M0.31232009548678263 98.60495395241097 C21.657552032205427 73.0726409126192, 42.57246921448084 47.46354021647794, 84.86568886990801 -1.143673490108739 M1.7013735671292807 103.40512391374651 C33.28580223334261 66.36825843142553, 63.83819705310823 27.908182476917005, 89.62525725694934 0.12129182150020767 M-0.07299145285526265 103.03124423985574 C33.194556448511214 68.22372203398834, 63.77456926100099 32.118587279832, 89.23628940297851 0.25401279577418734 M0.7039364111700976 111.29630689522745 C23.231572024652962 80.03449714950214, 46.77966577823651 54.4821965765166, 94.78552328268111 -1.9181236230032823 M0.054347724756034665 109.00082500199349 C28.377854964957073 77.15807550347199, 58.61898741653522 41.66205027046087, 95.56071755787403 -0.5152657857360623 M1.1094588426730994 116.06963828293583 C26.325642701713917 86.11801521431116, 49.350965460996825 59.65760568919451, 102.40253659961277 -0.928947575052554 M-0.6752764914326903 115.11032566236308 C40.04540364455596 69.6972065507068, 80.41428815775856 23.936582800350493, 99.8226621613791 -0.04795555270957408 M-1.6176269033739743 120.09372913184842 C34.345537884105084 82.41525411184483, 67.66022209659229 41.57639089867229, 105.95363743369413 1.0186708244380966 M0.8702622253631773 120.9898624028944 C28.326459157828022 90.5165038760689, 55.75378558184242 57.71255819959164, 106.6622747187404 -0.35094270660751903 M1.2970853699881317 127.3500148812737 C41.62566846040179 83.95454409038996, 82.58681779160878 36.330006226515906, 112.82122676991291 -1.4371261195545415 M-0.4265061486002324 127.86382110234905 C35.400462747310755 84.4209443010354, 73.0650407442963 41.90491095211894, 111.78394718174256 0.039873309500016774 M-0.3427012652813204 135.00938409552015 C48.562267840836896 80.40378649879668, 91.29792708014321 26.842663256872186, 116.57267955522838 1.0796282822780299 M-0.2445750745667823 133.65873607698865 C38.276761344541065 92.17032151001169, 74.47841946169702 51.45290523288786, 117.20497515164169 0.6203627493746566 M-1.984663949194612 139.0088072045646 C24.22236708852691 113.39091040299937, 51.685172735148214 85.60770200114365, 120.67966761159977 0.25935384424425934 M-0.1363885382518788 141.11116882124313 C40.94151611050186 93.98102975292608, 81.90919031852528 46.100423698163354, 120.94363079219391 0.026044304277974106 M1.952053169198038 146.08086944249268 C44.9053565921673 93.59995929251605, 88.82452157029554 40.954211500538364, 128.23748254901483 -0.31644775367903577 M0.7208221530911345 145.32849094615128 C34.58524133726522 105.20056810424973, 69.00306489247434 66.574715097575, 127.70723574268385 0.13996384363991154 M0.4650450934529326 151.23764903737214 C49.43439297522608 95.80526420736695, 101.65370205608238 37.37826719443485, 132.27628187054376 -1.0328089724881833 M0.8388988050943824 151.74547328179804 C40.07641537782874 104.98848868554126, 81.95433979184014 55.98913331185923, 133.07955990490103 -0.31627011161816887 M0.4163189818444798 157.3258682732949 C33.94038342068627 120.29689030924807, 67.84153833278945 81.87802249838616, 137.98413161938856 -1.2498008469188953 M-0.7899775799157389 159.24927954577254 C35.78166687840048 117.94848611997782, 73.22360185764768 75.07591873273512, 137.26995138995062 -0.010476044723046418 M0.17282413275963554 164.90079240508703 C42.809682369466046 116.49338654689639, 87.46765520888418 64.41503728805506, 142.3732224135328 0.05196214897048668 M0.6211984038013995 165.2217650620745 C41.18875054041535 115.24565633250732, 84.23172003439818 65.67386612702634, 143.22349212489812 -0.09894533684685744 M0.8263722897371507 172.47792175427196 C55.50504663718151 106.87278978836402, 109.47716995392469 42.24117798410896, 147.34762823186685 -1.1144394080232298 M-0.5646071824267549 170.0182825303859 C37.93310726220796 125.35662711263443, 77.67177037734065 79.63207705817592, 148.90223387683267 -0.1640712643818813 M-0.09078255490966058 177.73843371366954 C47.096439775728825 126.96208241743372, 91.46969323461698 73.42282666976686, 152.20588775205562 -1.139597519806744 M0.5192877597830583 176.62221264590394 C41.89978063192149 130.5260792206687, 81.19528719260938 84.2732414318298, 154.0393704248993 -0.039751083205154136 M1.3029014017329241 184.49771669542818 C62.564460263044836 112.38714274605425, 122.68363152458485 40.60830835223688, 158.4908665123643 -0.7627666189582059 M-0.17218351292924208 183.66283703799814 C53.36010144342667 120.79127307967073, 106.97101897232073 58.673018447951975, 158.82607958149958 0.9033040099785873 M-0.7247495680334679 190.08026458945508 C43.206671877556964 139.81547858975497, 86.48627840698211 91.09921694566566, 163.17159557543562 0.3274901547959346 M-0.18053162146961696 188.74210397311097 C45.531788634647555 137.74185734951106, 88.97148366909569 87.46007633294568, 163.74123167536447 0.23834182113836067 M1.2740744737399892 195.4059997416366 C67.63662314320798 115.29369627867575, 134.6361601836032 39.41602730422347, 169.76989869960153 -0.9769175926632625 M0.42976816116955846 194.49789205437577 C33.928375573423516 156.0357279277034, 69.4005296108859 114.17483014759955, 169.8260341826379 0.012732855531225051 M-0.6159706952152554 200.09004339057364 C36.59283141849005 158.00191465302467, 74.35543517434272 111.62013036010983, 175.26873865587748 0.10920906233311967 M-0.5986114012031327 200.86762384974372 C56.89547382226828 133.07617606998633, 116.79400119392527 65.44790450741998, 175.51411447301913 -0.32648009272625894 M-0.9463065133334654 207.79372251277024 C43.835361628706735 153.85651532732902, 90.35840095221752 100.26800292467418, 180.87797965729928 -0.860498467077853 M-0.26524334003759387 207.05913507778538 C52.7938000448344 148.16212526017893, 106.69393752000823 86.71571851330592, 180.07860904643414 0.39867326194888353 M0.5253494435926281 212.84116077977964 C70.61662913420133 133.1660850269894, 144.12343009211074 48.70366152192162, 185.8021740844868 -0.2222408406262305 M0.14957320985999858 212.7171358720178 C69.68887806664536 132.83379775178832, 140.8541001266402 52.32318766539236, 185.28234604889724 -0.1925451839231987 M-1.109098320426246 220.93683411156184 C48.45713532441516 162.07748591635368, 100.0196372230501 103.65804642094112, 191.14876210448608 0.3900637826160207 M-0.45389162459014687 219.47773521590813 C47.60679065945963 166.79822316946434, 93.85510481845155 113.77747859920683, 190.63336398720799 -0.5702361481080956 M0.18052033769685155 226.21567747792275 C59.484684346771644 160.9525981736308, 115.93409474454678 93.70369139554276, 197.18940882713267 -1.475943684794992 M0.09886310417586022 225.39916778614904 C53.83306142928102 165.62550689317686, 105.47015861695712 105.74304201511305, 196.87400699467358 -0.789865517955374 M-0.5628503972151337 232.79062602902334 C58.317665729492866 168.20974010934157, 113.60729729811129 100.27276019614493, 201.07942648431987 -0.8533503616435165 M0.419054880788704 232.47509575228327 C48.22607379186667 175.63832215928304, 96.9072212972748 119.39923402460508, 201.32704613707708 0.41847108086290163 M0.04898637036973935 236.95894162406225 C50.635700677271124 180.5454191378891, 97.26822252511977 124.27575610805154, 200.26419395021577 7.450690985583078 M0.7600349952517381 236.83160050302737 C69.73645186966704 156.99633157325505, 141.41674305675932 73.59200183819904, 201.32856222760896 7.162640232842184 M0.8767806740282882 242.9413902134307 C46.69586089220548 192.27348141118168, 89.99030762041858 140.22948681075562, 200.18790731298213 12.764870186780593 M0.36792277104681853 244.02421139490295 C56.82577230471708 179.2108074493852, 113.76360770887757 113.59217407449532, 201.17293917550566 11.831157260297497 M0.6475966127610899 251.35118867204815 C55.316661338786794 185.17540755824166, 109.85835284864442 122.9694404437955, 200.7276081097456 18.44014024535071 M-0.32643642373023024 250.6489497995268 C73.58743541653989 166.05427930655472, 145.8609884870701 81.48043680942071, 201.4251317282391 18.95815734564567 M0.09625313641758804 256.63019120117616 C68.2320681228393 175.89717837914534, 137.43824026579065 95.44986718540261, 202.27168533484652 25.014907378647774 M-0.49134523351179304 255.8888211400217 C59.09654037366984 190.00548647329725, 118.30857303353348 122.17691566078929, 201.3475494213838 24.435045419777364 M-0.23038435577515085 263.23522545233874 C40.86781002880809 211.3832229130083, 85.60866151309625 162.07489308405124, 202.05832794560084 30.549864206747845 M-0.37592374368482323 262.2148092645419 C57.94911871296291 193.91431944761067, 116.9959438743191 127.31441370348696, 201.01188159781242 29.94295731158692 M5.306013526337595 260.82911817450275 C76.11344321482436 179.18166914787363, 146.15403868867745 95.90845057770927, 200.66619042790964 38.193418821448745 M5.376261055555048 261.78738583017304 C46.37956717974795 212.73100996490058, 88.48001218756004 164.55064406804996, 201.26093725590113 36.420215198791595 M9.077131381180553 262.465491738006 C80.56138266802256 179.59852299548564, 150.6196211342672 97.86945871219524, 202.08295445455326 43.07691564045818 M10.111411306785001 261.93603659026604 C69.73647039331037 195.07637225123403, 128.08788575070645 126.83169511937973, 200.7825414661913 42.332701620939 M15.455928930978843 260.88153210966357 C80.26827217770027 189.28988018470338, 145.08247410786757 114.58136779116673, 202.3446145395955 49.601326202441626 M15.930231772264095 261.6417621901444 C73.63687186516609 195.72719714638993, 132.1492374110359 127.78676915112588, 201.62668402254363 49.56049039140891 M21.16169250904791 260.73428512201224 C71.78243882646117 200.61927867403443, 124.7060997721945 142.01507288132026, 201.1185662118912 55.303049077177675 M20.698453027939653 262.0085477453841 C66.23008065478243 208.90090097161428, 112.52239432699956 155.71836304469423, 201.65530304020675 55.72300069758154 M27.67612547782436 261.7677981878497 C96.21629403151142 183.26963041304003, 164.74309014894112 101.95097307036416, 202.82444717781178 61.652235335102304 M26.02969963721913 262.3849575328878 C80.01854110096693 202.97134160200247, 132.5199540656236 143.0785831118264, 202.00646505034712 60.87758688864887 M32.74057919377416 260.90376963979554 C97.28185420442044 187.5536426152575, 163.70457224855662 111.15156416025006, 200.35467957565913 68.06838451137415 M31.062435529282734 261.5692041740356 C92.06503229599826 192.32314512444856, 152.9054777366202 123.69428615839004, 200.33156878028944 67.46702602065884 M36.88544790745035 263.1173103614535 C102.76812835392627 188.19765579570597, 167.4709388560712 112.30886118699244, 201.46406013782223 72.23929939213585 M37.43724523521022 261.9583066583789 C97.93631445265972 191.31986458836772, 158.22487803829404 121.54463738764944, 200.692871709258 73.28018816783083 M41.260826287818944 261.274399572943 C89.41960030596644 206.9518197503002, 140.4015339212364 151.57060443429668, 202.71394671510302 80.68477600004603 M42.92065572793186 262.73177766354763 C87.3148909675609 206.5867735530969, 134.98398142977297 153.93502749257263, 201.7046426083276 79.71131784246279 M47.82561745381815 260.30714357824826 C84.02096243782127 217.65680705262852, 122.61368325837236 173.59248440678678, 199.82226094951193 86.50000503915933 M47.94805449059025 262.4379024045334 C103.36293206941606 195.57760910918597, 161.88949059036327 129.85901569228346, 201.43836317689863 86.39727282304004 M53.67741668175845 263.35510352384716 C108.79881239421881 198.73215945835662, 160.00937193987968 138.16972656392076, 200.64749837548652 92.3890841658984 M52.6602991336771 261.66514648889563 C103.55133862777988 204.9845432922103, 153.75054791485448 147.37189585209563, 201.81035281926745 90.81349831531273 M57.58479744245887 262.9554149528265 C95.36217120847427 220.03916262300027, 128.79827431611582 182.1178850213328, 199.5332807164512 99.20522235982446 M58.55598392146676 261.1549607427243 C99.35583200629104 216.01147802397773, 138.09391667924942 171.62470198925288, 200.54624729370022 97.20063274771678 M65.01335481616881 263.5682693449005 C107.43727823166336 212.31407256379163, 150.5630347045077 165.12787669989459, 200.17515565207333 105.00302728163629 M63.722421681308454 262.63999250005526 C94.91279730400882 225.56737151266543, 126.12903998757677 189.6925552855318, 200.58765573305539 103.54397236652798 M69.81593081978227 263.8344366089203 C106.96544659181393 217.8201601367808, 146.0331147510666 173.6860928774531, 199.81889342226452 110.5109552667472 M68.84869287130964 262.35705388631663 C102.87910753378598 224.92746085220304, 137.08465225683466 184.42832240739136, 202.0405969681069 110.79113422544474 M72.65123845769752 261.5061484741492 C121.18270683805898 208.556893315515, 169.13653828633673 154.40813170315351, 202.5509237426657 114.85562883962301 M74.0647689741357 262.03770746183375 C109.33869305320107 222.31259221925808, 142.88363972136466 185.1006307658685, 200.98546391291057 116.54418672986684 M78.06564938815458 260.6755270062308 C112.4029894747323 224.35754114315557, 141.1873592271658 188.21305915487054, 201.92638635971556 121.6116567605345 M78.51624108923747 263.18752997818547 C108.5341744794853 228.81942859129808, 135.96258184713173 197.47354460183925, 200.5064653070734 122.60252467050985 M83.04659412482384 262.6181672257898 C128.095073144212 212.59840700116072, 173.30175657004736 159.09880787435503, 199.71904548671537 130.24051445515022 M85.76724395116422 261.10593450214395 C111.43221216837115 228.33202640842177, 140.49913078215866 196.68590514912464, 201.84803979047084 128.9245510350646 M88.98037990269302 260.530805187803 C123.79307334280094 224.55257068748594, 157.28684577082845 186.34386582158993, 202.82811634961487 134.00017778255585 M90.11396638670055 261.88397471563917 C127.82662897553257 219.0032803368171, 164.85391348359116 174.9654351915421, 201.0644013683495 133.71431712206993 M94.71934694771184 260.9682917513562 C124.82521400946052 227.24024316342778, 158.00060326383112 190.0569439331087, 199.55787493340176 139.3569140477282 M96.50905990109308 262.20226441721 C128.2194227125618 224.4300110861119, 161.68948080561563 186.15673832934434, 201.524004492494 140.39686098845573 M101.02089624486813 263.19376922142607 C127.87414804755286 232.07070992445827, 150.8045193386937 203.49066988873477, 199.89757118503533 148.01481493997574 M100.96941644612649 262.2124041637863 C123.76162737933484 236.89777619353367, 144.91671669650145 211.23835994127228, 201.15820726416044 146.17899038798362 M107.4834617701116 260.45349470709834 C125.35100511261403 235.64410202171996, 150.3920186175405 211.9978218983883, 203.24075192647487 152.49242527360698 M106.48089065204738 261.3430546289069 C134.8814717406618 227.60434120806946, 165.2290550658079 195.15801001558856, 202.14934434710503 153.15716151191523 M112.98553825843 263.3270167633499 C135.02593615995914 233.35844806862366, 159.1984125584105 206.1476689355037, 200.10458376770808 157.69937172859866 M111.40607759564035 263.18136324450177 C144.09289514346835 223.76500063553368, 176.8217809936981 186.41593385974903, 201.61879988061233 158.42535772968043 M116.62165343577308 261.00199874926625 C137.1657969020444 241.18377164056167, 157.93443856615232 217.20242485074033, 202.40976630968473 164.96589578903652 M117.38903503215207 261.2790375591096 C139.101637247022 237.18767533128528, 159.6550076940988 215.13669012915386, 201.875670682429 163.63587252731807 M122.14139578712859 260.62439546982444 C142.11731373576282 239.54851871150225, 157.70614066577548 218.07078301774223, 201.91955991239251 169.39303038489737 M121.76306116336711 262.03377187966055 C151.1466184163252 226.56908273258392, 180.82961162151358 192.91230774890835, 201.82454401683958 170.8807361492581 M126.88538678844627 260.57327653411 C151.98392596890824 231.862718409028, 179.43042732947987 199.74049217989023, 200.51969889779076 175.88213283048964 M127.45541686953213 262.49532062969325 C154.80607126670247 228.43301754818197, 183.06748499054834 197.15965640494335, 201.2141607976003 178.25249853676206 M134.22430867471385 261.81100299709976 C152.4013203625195 239.91796206624068, 167.50899020892672 222.20849377974537, 199.93771446283867 184.71151356512183 M133.39510347743172 261.2469249911377 C151.65799221576552 237.8485366664718, 173.1251807826721 216.28128829570733, 201.32548850096723 183.9521080685916 M138.49487667188117 261.1580507178795 C160.11079227936224 234.17193961603454, 185.19221659031814 210.27029760548703, 201.46225759252403 191.11306489377077 M138.41758499231258 262.21138626253276 C162.43494073998147 233.3599682764813, 186.778855968879 206.00115967053213, 200.659794078725 189.39679030167665 M141.43886676493588 262.64318700142593 C158.19729684958077 244.85968898178822, 171.82424672893197 228.6673803727873, 202.22301226279657 195.3017939255221 M143.67256586595926 261.53249250080825 C158.15534494154036 246.05720216033447, 171.2428389731573 229.52509491602132, 202.1873071611203 195.780830909556 M149.13908792982778 262.77829395682477 C166.66383764545023 240.3155836297169, 188.65747866284823 220.14132124084907, 199.629723208644 201.82599921535265 M148.52871322861841 261.38109187950306 C168.22812231253423 239.94291688879377, 186.4451733490917 215.97528552541144, 201.75499782493762 200.95700232415956 M152.45840990154463 261.9085451390529 C169.174791387428 243.69386000488188, 184.96934823316474 230.2126639972564, 199.65210912702565 209.5968037025709 M152.9814346570747 262.83651933054716 C164.6559044425761 249.15106042794093, 174.76668338149068 236.833617878242, 201.3352397964332 207.99734667424897 M159.97573540603614 261.48722890719586 C166.9998143016171 249.83299091398123, 175.98095575446703 240.3456356307883, 200.53918558990074 211.46478345148535 M159.55760040657466 261.6926699024793 C169.85138942674573 250.17503217930127, 180.04287493743797 238.71661823365255, 200.71388336436314 214.30105452608586 M162.4250279282901 263.42592506623055 C176.80909065835345 245.73804726246672, 189.70633418700137 231.12757576921382, 202.538587957257 219.79659639207273 M163.723321178903 261.3394254022294 C175.7940637068665 247.45201851299717, 187.47795407667698 234.26845897036634, 200.17832829301204 219.70234362410008 M169.63128394425618 263.36932822524267 C180.59794394160187 248.67510328348604, 191.76681332759756 234.15158717311303, 202.17648458004413 226.5045152584188 M169.78867035430628 262.5687277533363 C180.70701381881634 248.35662701366172, 193.95514667953384 234.6140363499497, 200.7661870251265 226.0312418293305 M174.94956068892222 262.04542443920906 C185.41748375226007 251.27961151073967, 192.30516960411194 243.14723645518814, 202.69660456825 232.39660423050034 M175.31546175956916 262.45600563773 C180.74495754450527 254.68078808143113, 188.7499344662218 246.41135086360777, 201.67306244999122 230.99501376120705 M179.54488935924746 263.2950241474381 C187.0666219173136 252.68244789133712, 196.01167013685227 245.12823850523625, 200.3401509938338 239.2062518726258 M180.3659128709478 262.920957434172 C186.47884279616298 253.99753675988876, 193.37670860874056 247.69363503870434, 200.5012111063623 237.73894373599128 M184.11159802719112 261.6483909142383 C191.72379907328818 258.03613096184455, 193.5977830025566 252.50634716348034, 202.06512380375477 243.1687998741037 M185.19071772719826 261.83542995892395 C190.51809827577637 257.1226280330343, 195.4034109719293 251.7710693126457, 201.94761609549585 242.95421450744485 M190.59329128901055 263.60318663912176 C193.4887893733145 258.5222569967894, 196.17822090479467 257.6637859246295, 201.23108672598795 250.54515727866834 M190.85287952090192 262.9867282685852 C193.71560448872103 258.9232478867504, 196.1208333902991 256.5078824628754, 201.4122205349286 250.0552486527378 M196.32718751730394 261.6672790464275 C198.45958187087987 260.4319605540363, 199.46265569016472 257.7278124330781, 201.71322314472818 255.952266593984 M196.06242576653133 262.1528075024747 C197.1018740317924 260.4358648041801, 198.43762332827075 258.89134662656517, 201.15079416478002 255.74297551620626" stroke="#12b886" stroke-width="0.5" fill="none"></path><path d="M-0.6006376113297521 0.3850507015312254 C69.58558372177173 1.3573984157805659, 142.9040356243007 1.6847362848904823, 200.65854801311235 -0.08835345383433699 M0.6527220116416006 0.3174911517087429 C63.625216748717214 -2.3520940326910122, 126.5994257274951 -1.6552200578999623, 200.33370803429756 0.411512377742049 M200.47926310307346 -1.1452667411987447 C202.20189923374934 101.19802142847043, 203.33933040444555 199.38040926541026, 202.53328475883876 261.66557470650844 M201.39719369095877 -0.41194692935757526 C199.96230705755914 77.51877006715812, 199.84723523344283 154.22013722646793, 200.41908236688872 261.98541208476394 M200.27525452344008 261.48669777556876 C140.73798738604629 262.51935279977886, 76.59502997237689 262.64145113210895, -0.3793183310362875 263.01880734736386 M200.91376245534371 261.98304669701116 C158.5250551298482 262.6056306560173, 117.7902038220315 261.63792539304586, -0.17292848127155003 261.63978294100707 M1.0223428447566054 261.72754404610293 C-1.2879444689871322 195.12853075556296, -1.0639219481185207 127.00639226046744, -0.4449346223983027 -0.22965378846982942 M-0.35523674503287783 262.6761229179534 C0.25978411299480786 178.32347079834042, -0.2411398158585728 93.77435837235652, -0.5319977590954613 0.1782171029878747" stroke="#000000" stroke-width="1" fill="none"></path></g><g transform="translate(994.7360464889371 60.18046987056732) rotate(0 26.5 12.5)"><text x="0" y="18" font-family="Virgil, Segoe UI Emoji" font-size="20px" fill="#000000" text-anchor="start" style="white-space: pre;" direction="ltr">Infra</text></g><g><g transform="translate(1018.371331713889 300.33744951263066) rotate(0 2.1453323395923007 301.76588588465006)"><path d="M0.9806449603289364 -0.8871199619024992 C1.797995201249902 99.60572235040367, 4.00766013960036 502.2594127308578, 4.2543198440223025 602.9493676988036 M0.03634483516216269 1.2615381127595904 C0.8428575902928755 101.94810384377838, 3.0284374766299362 503.85224848553537, 3.8482418577372117 604.4188917312026" stroke="#000000" stroke-width="1" fill="none"></path></g><g transform="translate(1018.371331713889 300.33744951263066) rotate(0 2.1453323395923007 301.76588588465006)"><path d="M-8.077721059563245 578.0173464236641 C-4.2480318776961585 581.856297577724, -1.17411170250283 589.1062805422393, 5.335199107900171 605.3323143474013 M-6.391412240693952 575.8303420632938 C-2.4951718990911425 583.7581903323586, -0.34904521169524294 593.7030818770412, 3.9504355569555445 605.4109466993436" stroke="#000000" stroke-width="1" fill="none"></path></g><g transform="translate(1018.371331713889 300.33744951263066) rotate(0 2.1453323395923007 301.76588588465006)"><path d="M12.443035804033784 577.8811842740938 C11.227656727011793 581.9213075747274, 9.256517364700333 589.2047662124794, 5.335199107900171 605.3323143474013 M14.129344622903076 575.6941799137235 C12.051657318930761 583.5391805818123, 8.223056346331166 593.5237164615792, 3.9504355569555445 605.4109466993436" stroke="#000000" stroke-width="1" fill="none"></path></g></g><g><g transform="translate(48.60101228540765 347) rotate(0 223.5021171430871 11.296613956876115)"><path d="M0.5709840606898069 0.37159355767071256 C75.06062358530859 4.361086431021492, 372.98213280749815 19.532750744496784, 447.5926223229617 23.07215168364346 M-0.5883880367875098 -0.47892376989126206 C73.65029094944398 3.274420610169569, 371.7341336624821 17.646021673580012, 446.4307035788894 21.512456568777562" stroke="#1864ab" stroke-width="1" fill="none"></path></g><g transform="translate(48.60101228540765 347) rotate(0 223.5021171430871 11.296613956876115)"><path d="M418.3841275809829 29.680315677488696 C429.7794176615197 27.475971744795373, 437.5031002074523 22.831031963029126, 445.2625278797001 20.50328100182116 M417.6730646607031 29.962090851219845 C423.00796843426565 27.79838735652335, 429.23848573346703 26.574803711898152, 446.26543916706 22.034033151231707" stroke="#1864ab" stroke-width="1" fill="none"></path></g><g transform="translate(48.60101228540765 347) rotate(0 223.5021171430871 11.296613956876115)"><path d="M419.40404634519274 9.18446809559417 C430.29000079862624 14.25209617801449, 437.65205540806573 16.874275433382202, 445.2625278797001 20.50328100182116 M418.69298342491294 9.466243269325318 C423.7497907771798 11.496819518059738, 429.77192809386946 14.46075012510802, 446.26543916706 22.034033151231707" stroke="#1864ab" stroke-width="1" fill="none"></path></g></g><g transform="translate(156.60101228540765 327) rotate(0 129 12.5)"><text x="0" y="18" font-family="Virgil, Segoe UI Emoji" font-size="20px" fill="#000000" text-anchor="start" style="white-space: pre;" direction="ltr">Request Wireguard Config</text></g><g transform="translate(739.6010122854077 18) rotate(0 26 12.5)"><text x="0" y="18" font-family="Virgil, Segoe UI Emoji" font-size="20px" fill="#000000" text-anchor="start" style="white-space: pre;" direction="ltr">Admin</text></g><g transform="translate(46.60101228540765 10) rotate(0 21.5 12.5)"><text x="0" y="18" font-family="Virgil, Segoe UI Emoji" font-size="20px" fill="#000000" text-anchor="start" style="white-space: pre;" direction="ltr">User</text></g><g><g transform="translate(493.503247912582 430.8264698982239) rotate(0 -223.63140482801947 7.084694662392167)"><path d="M-0.08428446538746348 -0.49542871825397017 C-74.6427686183403 2.0826907623559237, -372.2784406909098 12.02274242527783, -446.8396588373929 14.628260206058622 M-1.5876725390553474 -1.801132740676403 C-76.24738216112057 1.022367215454578, -372.78824092259015 12.915758986771106, -447.17852519065144 15.970522065460681" stroke="#e67700" stroke-width="1" fill="none"></path></g><g transform="translate(493.503247912582 430.8264698982239) rotate(0 -223.63140482801947 7.084694662392167)"><path d="M-420.2514691669283 6.512157917372818 C-429.6333159405195 9.375808451567366, -438.29249210313816 12.786694100202645, -447.44732425905767 16.77069102860987 M-419.0419990261806 4.8453219508528065 C-429.5338631687795 7.723180336669717, -438.9293987597318 12.79508119773882, -447.0196875583753 15.221869665943085" stroke="#e67700" stroke-width="1" fill="none"></path></g><g transform="translate(493.503247912582 430.8264698982239) rotate(0 -223.63140482801947 7.084694662392167)"><path d="M-419.4215765707321 27.016578920283813 C-428.94413875498816 22.854753189235694, -437.8876393078736 19.240745464743306, -447.44732425905767 16.77069102860987 M-418.2121064299844 25.3497429537638 C-428.9977183313286 21.088248020038876, -438.68189140437335 19.028690572924216, -447.0196875583753 15.221869665943085" stroke="#e67700" stroke-width="1" fill="none"></path></g></g><g transform="translate(192.50324791258203 404.8264698982239) rotate(0 113.5 12.5)"><text x="0" y="18" font-family="Virgil, Segoe UI Emoji" font-size="20px" fill="#000000" text-anchor="start" style="white-space: pre;" direction="ltr">Give me your public key</text></g><g><g transform="translate(46.503247912582026 493.8264698982239) rotate(0 225.65411096923054 3.707294076867413)"><path d="M-0.8348911453038454 -0.23047496192157269 C74.59186385783056 1.4269480058302484, 376.8457034022857 7.582265069956581, 452.1431130837649 8.8116664160043 M0.9276522740721704 -1.397078262269497 C76.33293236504 0.024859511752923114, 376.9235788195332 5.546531019906203, 451.7952019891143 7.115216535627842" stroke="#1864ab" stroke-width="1" fill="none"></path></g><g transform="translate(46.503247912582026 493.8264698982239) rotate(0 225.65411096923054 3.707294076867413)"><path d="M423.02588922679536 18.73025115024548 C432.382643086673 14.36329610854747, 437.1346057564406 12.767757712309278, 451.5844247045368 8.684912695661186 M422.85090428274236 16.032016768159977 C431.10462783322015 15.254252427434043, 437.3886243337001 11.294251850003107, 452.20729153160005 7.08952186640352" stroke="#1864ab" stroke-width="1" fill="none"></path></g><g transform="translate(46.503247912582026 493.8264698982239) rotate(0 225.65411096923054 3.707294076867413)"><path d="M423.42539285991677 -1.7870683440978796 C432.48249655948905 -0.7152967727577111, 437.12850477115984 3.130670961090691, 451.5844247045368 8.684912695661186 M423.2504079158638 -4.485302726183382 C431.41556433893464 -0.3338759621777516, 437.6036132309906 0.6337075260763445, 452.20729153160005 7.08952186640352" stroke="#1864ab" stroke-width="1" fill="none"></path></g></g><g transform="translate(195.50324791258203 470.8264698982239) rotate(0 100.5 12.5)"><text x="0" y="18" font-family="Virgil, Segoe UI Emoji" font-size="20px" fill="#000000" text-anchor="start" style="white-space: pre;" direction="ltr">Here is my public key</text></g><g transform="translate(727.5987162942663 66.71325014893324) rotate(0 35.3515625 32.53773834745763)"><path d="M42.21913528057446 0.13106370943833312 C49.25798772216302 1.1058966238858763, 58.824829081799365 7.255980482527981, 63.49017810577044 12.752037299336841 C68.15552712974151 18.2480941161457, 70.25534529885373 26.564033063141885, 70.2112294244009 33.107404610291496 C70.16711354994807 39.65077615744111, 67.84352046935727 46.89711107292235, 63.225482859053486 52.01226658223452 C58.60744524874969 57.127422091546684, 49.68050951502797 62.25147987319413, 42.503003762578146 63.798337666164485 C35.32549801012832 65.34519545913484, 26.55826504797486 64.2433124324309, 20.160448344354517 61.29341334005666 C13.762631640734174 58.34351424768242, 7.466762173578026 52.11811576597772, 4.116103540856088 46.09894311191905 C0.7654449081341501 40.07977045786038, -1.5397212496443753 31.53637482843818, 0.05649654802289206 25.17837741570461 C1.6527143456901594 18.82038000297104, 7.915665377629996 12.283677461438682, 13.693410326859691 7.950958635517612 C19.471155276089387 3.618239809596542, 29.45770103270531 0.2088496417854735, 34.72296624340106 -0.8179355398218107 C39.98823145409681 -1.8447207214290948, 42.85428898222406 1.1952598132215093, 45.28500159103421 1.7902475458739069 C47.715714199844356 2.3852352785263045, 49.39330832854676 2.3016461076744847, 49.30724189626195 2.7519908560925757 M46.78893550453154 3.148853674746981 C53.40244775109505 4.964937708022457, 59.96002378956853 9.603674149073019, 64.02076520074777 14.953318174983863 C68.08150661192701 20.302962200894708, 71.861376317645 28.345363359376996, 71.153383971607 35.24671783021205 C70.445391625569 42.1480723010471, 65.16678361862613 51.25487009083934, 59.772811124519755 56.36144499999417 C54.37883863041338 61.468019909149, 46.08878680384133 65.51239491697537, 38.789549006968734 65.88616728514101 C31.490311210096134 66.25993965330666, 21.95644565368348 62.59273250236415, 15.977384343284164 58.60407920898802 C9.998323032884848 54.61542591561189, 5.055414950541662 48.0143848142126, 2.9151811445728413 41.954247524884224 C0.7749473386040209 35.89411023555585, 0.552448654166533 28.395141088406305, 3.135981507471243 22.243255473017776 C5.719514360775953 16.091369857629246, 12.036013360416629 8.878975363309621, 18.4163782644011 5.042933832553047 C24.79674316838557 1.2068923017964721, 36.53308573816094 -0.4529190794648539, 41.418170931378064 -0.7729937115216714 C46.30325612459519 -1.093068343578489, 46.671532167707724 2.625455115360481, 47.726889423703824 3.1224860402121415 C48.782246679699924 3.619516965063802, 48.15294470871197 2.126552623140562, 47.750314467354656 2.2091918375882926" stroke="#000000" stroke-width="2" fill="none"></path></g><g><g transform="translate(759.0870637518935 131.56191232772204) rotate(0 -1.1536699774053432 39.59839326065918)"><path d="M-0.3892420459538698 0.4971997607499361 C-0.8134231997011947 13.730648127747543, -2.5455258535737038 66.5311266643453, -3.139628500851302 79.4841608315138 M1.607267150580883 -0.287374310195446 C1.105931572643037 12.584863956151374, -2.817735943957591 64.42785374372187, -3.914607105391531 77.67194107012729" stroke="#000000" stroke-width="2" fill="none"></path></g></g><g><g transform="translate(755.7899239213846 212.4742534294155) rotate(0 15.560190487303089 24.18432004631734)"><path d="M0.4971997607499361 0.32965116016566753 C5.786836333962232 8.332608894244, 26.812067695418747 39.49938657499931, 31.821290068801943 47.628504358516125 M-0.7009090941958129 -0.5428859260864556 C4.475128341352642 7.656097636711015, 26.161599117620295 40.94066766573198, 31.183599592566942 48.911526018721105" stroke="#000000" stroke-width="2" fill="none"></path></g></g><g><g transform="translate(751.1951145993505 208.95200766670223) rotate(0 -14.039387234082483 22.528376029507598)"><path d="M0.32965116016566753 0.5911523569375277 C-4.139804594456558 7.844813289642752, -22.862680868503475 36.49375797957391, -27.205976573687224 44.01916535698128 M-0.9564207100868225 -0.14409660100936894 C-5.592239673002964 7.211136776134791, -24.238595434945847 37.851721239911626, -28.408425628330736 45.20084866002453" stroke="#000000" stroke-width="2" fill="none"></path></g></g><g><g transform="translate(728.8765234976552 146.54469834466823) rotate(0 15.728656119066272 14.162401917984852)"><path d="M0.5911523569375277 -0.4845782686024904 C5.451407569303772 4.478711478191163, 24.526729377879008 25.27346767672671, 29.6587310349474 30.10938964092759 M-0.5576313850097359 -1.7845858049578966 C4.651807234782389 2.8309637965100958, 26.727496981041686 23.286439942264536, 32.01494362314216 28.507234390076523" stroke="#000000" stroke-width="2" fill="none"></path></g></g><g><g transform="translate(761.1990870569778 175.17287631077033) rotate(0 22.111796575993026 -11.800416336438417)"><path d="M-0.4845782686024904 -0.6776037108153105 C6.911841774801331 -4.710944567871208, 37.43911915977755 -19.80531839257536, 44.7081714205886 -23.60889278539786 M1.4618794110417368 1.5810503956675528 C8.758170272106844 -2.818051133480782, 37.51489576814034 -20.71265611214993, 44.280545454889044 -25.18188306854436" stroke="#000000" stroke-width="2" fill="none"></path></g></g><g><g transform="translate(715.8090579256229 72.41870523026324) rotate(0 50.97656628116977 10.887636508550486)"><path d="M-0.6776037108153105 0.9912752341479061 C16.328993608554217 4.418707686662673, 85.39437248955178 16.795588983595366, 102.63073627315471 20.08001644648611 M1.167515611667186 0.46609078673645854 C18.05596322193123 4.088915008064358, 85.32983911280218 17.71495990341529, 102.23227527515972 21.309182230364527" stroke="#000000" stroke-width="2" fill="none"></path></g></g><g transform="translate(738.7728764583305 58.89590551828138) rotate(10.74366233694554 30.400191128048846 10.486698509180314)"><path d="M0.745147081092 0.9947513919323683 L62.44482222344689 -1.2383360881358385 L61.07907185103707 21.598834335776726 L-1.5152510087937117 22.291951537105003" stroke="none" stroke-width="0" fill="#fff"></path><path d="M1.7447125893086195 -0.9786014836281538 C17.71268646521474 -0.4511448182610225, 30.43309984002223 -2.4143874086884214, 59.98059421550445 0.011492522433400154 M-0.8351618489250541 -0.09760946128517389 C14.750658358560473 1.28955164114799, 28.08057436835313 -0.4466477080169728, 59.888244972154126 0.2211667587980628 M60.45312124263458 1.3636191207915545 C59.927995701673574 5.069570955064549, 60.159994204881734 14.036785683014301, 58.94409966241531 20.35631737482802 M61.16175852768086 -0.005994410254061222 C61.2710239867699 7.248700630260388, 59.83775779409526 15.343024844053646, 60.317495838328824 21.563124895999888 M62.33369517099075 19.52111181986586 C38.71478253778777 22.83304269145514, 16.234417801923662 20.797576437697664, -0.9039332289248705 19.21250358593718 M61.2964155828204 20.99811124892042 C43.80499719104773 21.059893352494008, 25.396846964863435 21.14255119632221, 0.5252609709277749 21.84572467298315 M0.29775029234588146 21.67775884640471 C0.43265370425884137 12.581379460990608, -0.1381851643591701 7.057420195815762, -0.600252153351903 1.2283055502921343 M0.9300458887591958 21.218493313501337 C-1.0676232536436105 14.502209869454497, -0.9071184654832865 8.422125422905216, -0.6739194830879569 -0.7673681387677789" stroke="#000000" stroke-width="2" fill="none"></path></g><g><g transform="translate(757.5032479125821 132.82646989822388) rotate(0 0.2596275843681042 249.97010157074777)"><path d="M-1.0061124812811613 0.34441607706248756 C-0.6325216069817239 83.76492478283122, 1.2910899013282384 416.0777040035464, 1.525367650017324 499.5143263720348 M0.6665397367067634 -0.5203694278188049 C0.9892647516168955 83.09424069680273, 1.0703943326512004 416.6319083942472, 0.8442615251431198 500.4605725693143" stroke="#000000" stroke-width="1" fill="none"></path></g><g transform="translate(757.5032479125821 132.82646989822388) rotate(0 0.2596275843681042 249.97010157074777)"><path d="M-8.815655807210852 473.1075311802487 C-9.044089567762454 478.09407435829644, -4.168309927972897 485.62158149086537, 0.5237921773830385 499.0846868424303 M-8.463143480188002 473.23006890026585 C-6.893823921306703 482.17359467516326, -3.04911621150333 490.57831179534793, 0.6190911800974936 501.26284687189377" stroke="#000000" stroke-width="1" fill="none"></path></g><g transform="translate(757.5032479125821 132.82646989822388) rotate(0 0.2596275843681042 249.97010157074777)"><path d="M11.705543618823281 473.12693485968947 C6.545648411025839 477.9367596833343, 6.489803495292211 485.45960375211195, 0.5237921773830385 499.0846868424303 M12.058055945846132 473.2494725797066 C6.834801693624472 482.04257282419564, 3.8869127895476767 490.4408672512165, 0.6190911800974936 501.26284687189377" stroke="#000000" stroke-width="1" fill="none"></path></g></g><g><g transform="translate(494.503247912582 514.8264698982239) rotate(0 132.32051621545105 4.877933236807564)"><path d="M-0.9539493251591921 0.7121252406388521 C43.185660094333194 2.077674606765307, 221.0708992988492 6.776359996323769, 265.5949817560613 8.239913131371122 M0.7460885497927667 0.0403870466351508 C44.64369117387881 1.5959153532485135, 220.393100302654 8.431014657964294, 264.5406190034002 9.71547942698" stroke="#e67700" stroke-width="1" fill="none"></path></g><g transform="translate(494.503247912582 514.8264698982239) rotate(0 132.32051621545105 4.877933236807564)"><path d="M237.19819745808093 18.65585276285602 C246.17062566732812 16.506356571245526, 258.61912933645266 13.789154558672042, 264.45810066238045 10.472640062645059 M236.18172474871574 18.50169899581416 C246.5812288793779 15.502579179968045, 255.05908576908345 12.52755879624834, 265.2651030456647 9.284683577679079" stroke="#e67700" stroke-width="1" fill="none"></path></g><g transform="translate(494.503247912582 514.8264698982239) rotate(0 132.32051621545105 4.877933236807564)"><path d="M237.90907321557256 -1.8530394072064666 C246.63134219886464 3.438806029001733, 258.8217194613236 8.168596806323041, 264.45810066238045 10.472640062645059 M236.89260050620737 -2.0071931742483287 C246.8729002058709 2.072067472666278, 255.10546784484268 6.173685644642025, 265.2651030456647 9.284683577679079" stroke="#e67700" stroke-width="1" fill="none"></path></g></g><g transform="translate(601.5032479125821 488.8264698982239) rotate(0 42.5 12.5)"><text x="0" y="18" font-family="Virgil, Segoe UI Emoji" font-size="20px" fill="#000000" text-anchor="start" style="white-space: pre;" direction="ltr">Approve?</text></g><g><g transform="translate(757.8601839024943 579.7236389693057) rotate(0 -132.04760696322649 2.585941558759714)"><path d="M-0.9280104529112577 0.00742752067744723 C-45.09788916422359 1.0188204270446324, -220.41861765302377 5.440604208332313, -264.4230853688527 6.206160093825474 M0.7856453299708663 -1.0342769763059914 C-43.51270909447527 -0.3440327521754777, -220.4983512942273 3.548009674527508, -264.88085925642366 4.66283315662311" stroke="#5c940d" stroke-width="1" fill="none"></path></g><g transform="translate(757.8601839024943 579.7236389693057) rotate(0 -132.04760696322649 2.585941558759714)"><path d="M-236.92336276792344 -4.692688464896788 C-244.85624049680743 -1.9793073685973726, -257.3038138515291 0.951159724107673, -265.3457227038961 5.2393602138386814 M-236.58762864176538 -6.470684689248015 C-247.25895403934376 -1.7241746569502867, -257.7130299230258 2.3035929622443643, -265.7786564842608 5.092848229780957" stroke="#5c940d" stroke-width="1" fill="none"></path></g><g transform="translate(757.8601839024943 579.7236389693057) rotate(0 -132.04760696322649 2.585941558759714)"><path d="M-236.4472188503364 15.822995519693743 C-244.57015494943087 11.3587240315048, -257.1842273765715 7.115220760826577, -265.3457227038961 5.2393602138386814 M-236.11148472417835 14.044999295342516 C-247.010348094955 11.06368486866796, -257.6438725948428 7.359523200165313, -265.7786564842608 5.092848229780957" stroke="#5c940d" stroke-width="1" fill="none"></path></g></g><g transform="translate(597.5032479125821 547.8264698982239) rotate(0 43 12.5)"><text x="0" y="18" font-family="Virgil, Segoe UI Emoji" font-size="20px" fill="#000000" text-anchor="start" style="white-space: pre;" direction="ltr">Approved</text></g><g><g transform="translate(495.503247912582 678.5551799535751) rotate(0 263.7359878783767 8.876581917889382)"><path d="M1.1220963466912506 -0.8872488666325807 C89.17392393816264 2.2824190480634527, 439.3584773102776 15.258244406245629, 527.2199175573886 18.64041270241139 M0.2520581993646922 1.2613415330462159 C88.20720259441066 4.0864347954280635, 438.12870206354194 13.957309229094516, 526.0671004525759 16.68594628801567" stroke="#e67700" stroke-width="1" fill="none"></path></g><g transform="translate(495.503247912582 678.5551799535751) rotate(0 263.7359878783767 8.876581917889382)"><path d="M496.1074864633372 25.46138971138842 C504.1043308325497 25.009091403473413, 511.3346716500179 20.577321576928636, 524.5996026586183 15.099934161137767 M497.4132494369512 25.94588903457023 C508.13391196460407 22.54991426335085, 519.553068685588 18.347312844895765, 526.8340882820451 15.955462593082316" stroke="#e67700" stroke-width="1" fill="none"></path></g><g transform="translate(495.503247912582 678.5551799535751) rotate(0 263.7359878783767 8.876581917889382)"><path d="M496.71214089106843 4.9490910735256985 C504.5180200401216 8.79114450895162, 511.6219401125114 8.648072421378043, 524.5996026586183 15.099934161137767 M498.01790386468247 5.4335903967075065 C508.69969559538475 9.845973844710617, 519.8888229226624 13.446890275110688, 526.8340882820451 15.955462593082316" stroke="#e67700" stroke-width="1" fill="none"></path></g></g><g transform="translate(713.5032479125821 659.5551799535751) rotate(0 90 12.5)"><text x="0" y="18" font-family="Virgil, Segoe UI Emoji" font-size="20px" fill="#000000" text-anchor="start" style="white-space: pre;" direction="ltr">Setup client config</text></g><g><g transform="translate(1011.8475000575745 756.0789187062533) rotate(0 -258.6493009628355 5.5032229651509965)"><path d="M-1.08469464071095 -0.895001758262515 C-87.068706388101 0.7646933327739286, -430.95555194877096 8.805647657128596, -516.7765750334413 10.891080892085938 M0.5467019435763358 1.2495183733105661 C-85.5391008399427 2.944108481494074, -431.67165349051356 9.978126196103714, -517.8453038692475 11.901447688564566" stroke="#087f5b" stroke-width="1" fill="none"></path></g><g transform="translate(1011.8475000575745 756.0789187062533) rotate(0 -258.6493009628355 5.5032229651509965)"><path d="M-491.3695311584878 0.6637337215029948 C-497.82343263303034 4.154323298817608, -502.9693273397026 4.105632166460916, -516.6789380092174 13.547877199351696 M-489.08954562352926 1.8454917052545898 C-495.70698764688456 4.111954827039107, -503.7143473482469 6.169640906625535, -518.0755078991875 11.722718451507298" stroke="#087f5b" stroke-width="1" fill="none"></path></g><g transform="translate(1011.8475000575745 756.0789187062533) rotate(0 -258.6493009628355 5.5032229651509965)"><path d="M-490.9354723555425 21.18035126293571 C-497.64753298734473 20.003768912098383, -502.89208547822165 15.291829362067318, -516.6789380092174 13.547877199351696 M-488.655486820584 22.362109246687304 C-495.21662775116965 19.70275482221028, -503.3281380220093 16.837565507522257, -518.0755078991875 11.722718451507298" stroke="#087f5b" stroke-width="1" fill="none"></path></g></g><g transform="translate(719.3007981139981 736.9739204645157) rotate(0 37.5 12.5)"><text x="0" y="18" font-family="Virgil, Segoe UI Emoji" font-size="20px" fill="#000000" text-anchor="start" style="white-space: pre;" direction="ltr">Success</text></g><g><g transform="translate(492.9549929458462 786.9739204645157) rotate(0 -224.6636778123211 9.308708536904305)"><path d="M0.9862353075295685 0.1645297598093749 C-74.02764083258808 3.1160368076215192, -374.6140025150031 15.117931619410715, -449.5839642416686 18.262090415880085 M0.044870114643126735 -0.794696061629802 C-75.13431228784845 2.248219934484611, -375.47497270433234 15.885922507823757, -450.3135909321718 19.412113135438414" stroke="#e67700" stroke-width="1" fill="none"></path></g><g transform="translate(492.9549929458462 786.9739204645157) rotate(0 -224.6636778123211 9.308708536904305)"><path d="M-422.35038792324815 8.55907747661637 C-433.2600106094529 13.981707366729955, -441.43979527393356 15.901318219711612, -450.4046235247515 21.177836719658227 M-423.0505430352092 7.37166800396459 C-433.3643911943222 11.480674640945173, -442.6698368044326 16.108797036873028, -450.9729710412212 18.474869212824853" stroke="#e67700" stroke-width="1" fill="none"></path></g><g transform="translate(492.9549929458462 786.9739204645157) rotate(0 -224.6636778123211 9.308708536904305)"><path d="M-421.4064790026981 29.058566210132273 C-432.73302495899816 27.486170198671175, -441.2352561944935 22.402997514206994, -450.4046235247515 21.177836719658227 M-422.1066341146592 27.871156737480494 C-432.6921412415489 24.551314512097584, -442.3394297855084 21.755409845129616, -450.9729710412212 18.474869212824853" stroke="#e67700" stroke-width="1" fill="none"></path></g></g><g transform="translate(224.9549929458462 762.9739204645157) rotate(0 37.5 12.5)"><text x="0" y="18" font-family="Virgil, Segoe UI Emoji" font-size="20px" fill="#000000" text-anchor="start" style="white-space: pre;" direction="ltr">Success</text></g></svg>